<?xml version="1.0" encoding="UTF-8"?>
<svg width="14px" height="16px" viewBox="0 0 14 16" version="1.1" xmlns="http://www.w3.org/2000/svg" xmlns:xlink="http://www.w3.org/1999/xlink">
    <!-- Generator: Sketch 50.2 (55047) - http://www.bohemiancoding.com/sketch -->
    <title>hi-attach</title>
    <desc>Created with Sketch.</desc>
    <defs></defs>
    <g id="Page-1" stroke="none" stroke-width="1" fill="none" fill-rule="evenodd">
        <g id="icon/hi-attach" transform="translate(-1.000000, 0.000000)" fill="#4A4A4A" fill-rule="nonzero">
            <path d="M8.50344661,5.00344661 C8.69870876,4.80818446 9.01529124,4.80818446 9.21055339,5.00344661 C9.40581554,5.19870876 9.40581554,5.51529124 9.21055339,5.71055339 L6.20555339,8.71555339 C5.71777245,9.20333433 5.71777245,9.9949513 6.20555339,10.4834466 C6.69333433,10.9712276 7.4849513,10.9712276 7.97344661,10.4834466 L12.0394466,6.41744661 C13.2111845,5.24570876 13.2111845,3.34629124 12.0394466,2.17455339 C10.8677088,1.00281554 8.96829124,1.00281554 7.79659339,2.17451339 L3.37755339,6.59455339 C1.52280117,8.44930561 1.52280117,11.4567896 3.37755339,13.3124466 C5.23230561,15.1671988 8.23978961,15.1671988 10.0954031,13.3124901 L14.1604031,9.24649009 C14.3556413,9.05120394 14.6722237,9.051165 14.8675099,9.24640313 C15.0627961,9.44164126 15.062835,9.75822375 14.8675969,9.95350991 L10.8024672,14.0196396 C8.55621039,16.2648012 4.91569439,16.2648012 2.67036041,14.0194672 C0.42519883,11.7732104 0.42519883,8.13269439 2.67040661,5.88748661 L7.08944661,1.46744661 C8.65170876,-0.0948155365 11.1842912,-0.0948155365 12.7465534,1.46744661 C14.3088155,3.02970876 14.3088155,5.56229124 12.7465534,7.12455339 L8.68029466,11.1908119 C7.8010487,12.0687724 6.37666567,12.0687724 5.49818807,11.1902947 C4.62022755,10.3110487 4.62022755,8.88666567 5.49844661,8.00844661 L8.50344661,5.00344661 Z" id="Shape"></path>
        </g>
    </g>
</svg>