<?xml version="1.0" encoding="UTF-8"?>
<svg width="16px" height="16px" viewBox="0 0 16 16" version="1.1" xmlns="http://www.w3.org/2000/svg" xmlns:xlink="http://www.w3.org/1999/xlink">
    <!-- Generator: Sketch 50.2 (55047) - http://www.bohemiancoding.com/sketch -->
    <title>hi-alert</title>
    <desc>Created with Sketch.</desc>
    <defs></defs>
    <g id="hi-alert" stroke="none" stroke-width="1" fill="none" fill-rule="evenodd">
        <path d="M13,5.296 C13,6.54447927 13.6651088,7.70049589 14.7409432,8.31637886 C15.5374508,8.77365627 16,9.33746165 16,10 C16,11.8058469 12.4172107,13 8,13 C3.58278925,13 0,11.8058469 0,10 C0,9.33746165 0.462549162,8.77365627 1.25932557,8.31622468 C2.33514958,7.69947699 3,6.54415125 3,5.296 L3,5 C3,2.23885763 5.23885763,0 8,0 C10.7611424,0 13,2.23885763 13,5 L13,5.296 Z M12,5.296 L12,5 C12,2.79114237 10.2088576,1 8,1 C5.79114237,1 4,2.79114237 4,5 L4,5.296 C4,6.90139259 3.14437193,8.38823699 1.75694318,9.18362114 C1.23835618,9.48134347 1,9.77187799 1,10 C1,10.9559229 4.13251995,12 8,12 C11.8674801,12 15,10.9559229 15,10 C15,9.77187799 14.7616438,9.48134347 14.2435901,9.18392684 C12.8559849,8.389565 12,6.90178919 12,5.296 Z" id="Shape" fill="#4A4A4A" fill-rule="nonzero"></path>
        <path d="M9.83386181,13.7997267 C9.94446971,13.5467039 10.2392506,13.4312539 10.4922733,13.5418618 C10.7452961,13.6524697 10.8607461,13.9472506 10.7501382,14.2002733 C10.2762363,15.2843546 9.20361335,16 8,16 C6.79708476,16 5.72542099,15.285107 5.25013605,14.2018995 C5.13918233,13.9490282 5.25422924,13.6540898 5.50710051,13.5431361 C5.75997179,13.4321823 6.05491023,13.5472292 6.16586395,13.8001005 C6.48316695,14.5232562 7.19783207,15 8,15 C8.80261527,15 9.51774077,14.522874 9.83386181,13.7997267 Z" id="Shape" fill="#4A4A4A" fill-rule="nonzero"></path>
    </g>
</svg>