<?xml version="1.0" encoding="UTF-8"?>
<svg width="16px" height="16px" viewBox="0 0 16 16" version="1.1" xmlns="http://www.w3.org/2000/svg" xmlns:xlink="http://www.w3.org/1999/xlink">
    <!-- Generator: Sketch 58 (84663) - https://sketch.com -->
    <title>hi-ban</title>
    <desc>Created with Sketch.</desc>
    <g id="Page-1" stroke="none" stroke-width="1" fill="none" fill-rule="evenodd">
        <g id="hi-ban" fill="#626262">
            <path d="M8,0 C12.418278,0 16,3.581722 16,8 C16,12.418278 12.418278,16 8,16 C3.581722,16 0,12.418278 0,8 C0,3.581722 3.581722,0 8,0 Z M8,1 C4.13400675,1 1,4.13400675 1,8 C1,11.8659932 4.13400675,15 8,15 C11.8659932,15 15,11.8659932 15,8 C15,4.13400675 11.8659932,1 8,1 Z" id="Shape" fill-rule="nonzero"></path>
            <path d="M2.34106606,12.9463987 L12.9476678,2.33979699 C13.1429299,2.14453485 13.4595124,2.14453485 13.6547746,2.33979699 C13.8500367,2.53505914 13.8500367,2.85164163 13.6547746,3.04690377 L3.04817284,13.6535055 C2.85291069,13.8487676 2.5363282,13.8487676 2.34106606,13.6535055 C2.14580391,13.4582433 2.14580391,13.1416609 2.34106606,12.9463987 Z" id="Rectangle"></path>
        </g>
    </g>
</svg>