<?xml version="1.0" encoding="UTF-8"?>
<svg width="16px" height="16px" viewBox="0 0 16 16" version="1.1" xmlns="http://www.w3.org/2000/svg" xmlns:xlink="http://www.w3.org/1999/xlink">
    <!-- Generator: Sketch 57.1 (83088) - https://sketch.com -->
    <title>topmenu/icon/reports</title>
    <desc>Created with Sketch.</desc>
    <g id="topmenu/icon/reports" stroke="none" stroke-width="1" fill="none" fill-rule="evenodd">
        <g id="Group" fill="#626262" fill-rule="nonzero">
            <path d="M2,0 L14,0 C15.1045695,0 16,0.8954305 16,2 L16,14 C16,15.1045695 15.1045695,16 14,16 L2,16 C0.8954305,16 0,15.1045695 0,14 L0,2 C0,0.8954305 0.8954305,0 2,0 Z M2,1 C1.44771525,1 1,1.44771525 1,2 L1,14 C1,14.5522847 1.44771525,15 2,15 L14,15 C14.5522847,15 15,14.5522847 15,14 L15,2 C15,1.44771525 14.5522847,1 14,1 L2,1 Z" id="Rectangle"></path>
            <path d="M0.890856193,10.1607102 L3.64018355,7.23707382 C4.10163479,6.78840778 4.82801549,6.65102554 5.45428033,6.90888756 L6.48154333,7.38531473 C7.49857165,7.79343119 8.6322556,7.66806026 9.50790501,7.06298335 L10.9406163,5.95630491 C11.6765239,5.4262844 12.5148805,5.0117179 13.4071143,4.74015278 L15.7015226,4.11897559 L15.440098,3.15375168 L13.1308135,3.77920623 C12.1187788,4.08698414 11.1812243,4.55060391 10.3424692,5.15509481 L8.91785507,6.25605873 C8.34019859,6.65435389 7.55967291,6.74067003 6.87763678,6.46748503 L5.85482855,5.99286709 C4.84131301,5.57505045 3.69083888,5.79264256 2.92711678,6.53632307 L0.162366463,9.47565346 L0.890856193,10.1607102 Z" id="Path"></path>
            <polygon id="Path" points="3.79066991 6.34036364 3.79066991 15.0743408 4.79066991 15.0743408 4.79066991 6.34036364"></polygon>
            <polygon id="Path" points="7.55171969 7.10235674 7.54871085 15.0741521 8.54871078 15.0745295 8.55171961 7.10273417"></polygon>
            <polygon id="Path" points="11.3127694 4.84581818 11.3127694 15.0743408 12.3127694 15.0743408 12.3127694 4.84581818"></polygon>
            <polygon id="Path" points="0.529620168 10.3181818 15.5738191 10.3181818 15.5738191 9.31818182 0.529620168 9.31818182"></polygon>
            <polygon id="Path" points="8.77985888 7.40909091 15.5738191 7.40909091 15.5738191 6.40909091 8.77985888 6.40909091"></polygon>
            <polygon id="Path" points="0.529620168 13.2272727 15.5738191 13.2272727 15.5738191 12.2272727 0.529620168 12.2272727"></polygon>
        </g>
    </g>
</svg>