<?xml version="1.0" encoding="UTF-8"?>
<svg width="16px" height="16px" viewBox="0 0 16 16" version="1.1" xmlns="http://www.w3.org/2000/svg" xmlns:xlink="http://www.w3.org/1999/xlink">
    <!-- Generator: Sketch 51.1 (57501) - http://www.bohemiancoding.com/sketch -->
    <title>topmenu/icon/data</title>
    <desc>Created with Sketch.</desc>
    <defs></defs>
    <g id="topmenu/icon/data" stroke="none" stroke-width="1" fill="none" fill-rule="evenodd">
        <g id="database" transform="translate(1.000000, 0.000000)" fill="#111111" fill-rule="nonzero">
            <path d="M7,6 C3.15303069,6 0,4.78729589 0,3 C0,1.21270411 3.15303069,0 7,0 C10.8469693,0 14,1.21270411 14,3 C14,4.78729589 10.8469693,6 7,6 Z M7,5 C10.3327324,5 13,3.97412786 13,3 C13,2.02587214 10.3327324,1 7,1 C3.66726756,1 1,2.02587214 1,3 C1,3.97412786 3.66726756,5 7,5 Z" id="Oval"></path>
            <path d="M0,6.5 C0,6.22385763 0.223857625,6 0.5,6 C0.776142375,6 1,6.22385763 1,6.5 L1,13 C1,13.9743278 3.66691765,15 7,15 C10.3330824,15 13,13.9743278 13,13 L13,6.5 C13,6.22385763 13.2238576,6 13.5,6 C13.7761424,6 14,6.22385763 14,6.5 L14,13 C14,14.7875127 10.8473321,16 7,16 C3.15266787,16 0,14.7875127 0,13 L0,6.5 Z" id="Shape"></path>
        </g>
    </g>
</svg>