<svg height="16" viewBox="0 0 16 16" width="16" xmlns="http://www.w3.org/2000/svg"><g fill="#4a4a4a"><path d="m1 6c0-.27614237.22385763-.5.5-.5s.5.22385763.5.5v7.5c0 .8288576.67114237 1.5 1.5 1.5h9c.8288576 0 1.5-.6711424 1.5-1.5v-7.5c0-.27614237.2238576-.5.5-.5s.5.22385763.5.5v7.5c0 1.3811424-1.1188576 2.5-2.5 2.5h-9c-1.38114237 0-2.5-1.1188576-2.5-2.5z"/><path d="m.5 4c-.27614237 0-.5-.22385763-.5-.5s.22385763-.5.5-.5h15c.2761424 0 .5.22385763.5.5s-.2238576.5-.5.5z"/><path d="m6 1v2.5c0 .27614237-.22385763.5-.5.5s-.5-.22385763-.5-.5v-3c0-.27614237.22385763-.5.5-.5h5c.2761424 0 .5.22385763.5.5v3c0 .27614237-.2238576.5-.5.5s-.5-.22385763-.5-.5v-2.5z"/><path d="m5 7.5c0-.27614237.36192881-.5.5-.5s.5.22385763.5.5v5c0 .2761424-.36192881.5-.5.5s-.5-.2238576-.5-.5z"/><path d="m10 7.5c0-.27614237.2238576-.5.5-.5s.5.22385763.5.5v5c0 .2761424-.2238576.5-.5.5s-.5-.2238576-.5-.5z"/></g></svg>