<svg height="16" viewBox="0 0 16 16" width="16" xmlns="http://www.w3.org/2000/svg"><g fill="#4a4a4a" fill-rule="nonzero"><path d="m1 1v10h10v-10zm-.5-1h11c.2761424 0 .5.22385763.5.5v11c0 .2761424-.2238576.5-.5.5h-11c-.27614237 0-.5-.2238576-.5-.5v-11c0-.27614237.22385763-.5.5-.5z"/><path d="m15 5h-1.5c-.2761424 0-.5-.22385763-.5-.5s.2238576-.5.5-.5h2c.2761424 0 .5.22385763.5.5v11c0 .2761424-.2238576.5-.5.5h-11c-.27614237 0-.5-.2238576-.5-.5v-2c0-.2761424.22385763-.5.5-.5s.5.2238576.5.5v1.5h10z"/></g></svg>