<svg height="16" viewBox="0 0 16 16" width="16" xmlns="http://www.w3.org/2000/svg"><g fill="#4a4a4a"><path d="m10 6h2.5c.4328855 0 .6612322.5127211.3716471.83448237l-4.50000003 5.00000003c-.19862116.2206901-.54467298.2206901-.74329414 0l-4.5-5.00000003c-.28958514-.32176127-.06123844-.83448237.37164707-.83448237h2.5v-5.5c0-.27614237.22385763-.5.5-.5h3c.27614237 0 .5.22385763.5.5zm-5.3773188 1 3.3773188 3.7525764 3.3773188-3.7525764h-1.8773188c-.27614237 0-.5-.22385763-.5-.5v-5.5h-2v5.5c0 .27614237-.22385763.5-.5.5z"/><path d="m15 10.5c0-.2761424.2238576-.5.5-.5s.5.2238576.5.5v4c0 .8281424-.6718576 1.5-1.5 1.5h-13c-.82814237 0-1.5-.6718576-1.5-1.5v-4c0-.2761424.22385763-.5.5-.5.27614238 0 .5.2238576.5.5v4c0 .2758576.22414237.5.5.5h13c.2758576 0 .5-.2241424.5-.5z"/></g></svg>