<?xml version="1.0" encoding="UTF-8"?>
<svg width="16px" height="16px" viewBox="0 0 16 16" version="1.1" xmlns="http://www.w3.org/2000/svg" xmlns:xlink="http://www.w3.org/1999/xlink">
    <!-- Generator: Sketch 51.1 (57501) - http://www.bohemiancoding.com/sketch -->
    <title>topmenu/icon/exit</title>
    <desc>Created with Sketch.</desc>
    <defs></defs>
    <g id="topmenu/icon/exit" stroke="none" stroke-width="1" fill="none" fill-rule="evenodd">
        <g id="log-out-2" fill="#111111" fill-rule="nonzero">
            <path d="M8.5,9 C8.22385763,9 8,8.77614237 8,8.5 C8,8.22385763 8.22385763,8 8.5,8 L15.5,8 C15.7761424,8 16,8.22385763 16,8.5 C16,8.77614237 15.7761424,9 15.5,9 L8.5,9 Z" id="Shape"></path>
            <path d="M14.7928932,8.5 L12.1464466,5.85355339 C11.9511845,5.65829124 11.9511845,5.34170876 12.1464466,5.14644661 C12.3417088,4.95118446 12.6582912,4.95118446 12.8535534,5.14644661 L15.8535534,8.14644661 C16.0488155,8.34170876 16.0488155,8.65829124 15.8535534,8.85355339 L12.8535534,11.8535534 C12.6582912,12.0488155 12.3417088,12.0488155 12.1464466,11.8535534 C11.9511845,11.6582912 11.9511845,11.3417088 12.1464466,11.1464466 L14.7928932,8.5 Z" id="Shape"></path>
            <path d="M1,1.70710678 L1,11.2596876 L5,14.4596876 L5,5.70710678 L1,1.70710678 Z M1.70710678,1 L5.85355339,5.14644661 C5.94732158,5.2402148 6,5.36739176 6,5.5 L6,15.5 C6,15.9192531 5.51503415,16.1523397 5.18765248,15.8904344 L0.187652476,11.8904344 C0.0690448595,11.7955483 0,11.6518919 0,11.5 L0,0.5 C0,0.223857625 0.223857625,0 0.5,0 L8.5,0 C8.77614237,0 9,0.223857625 9,0.5 L9,4.5 C9,4.77614237 8.77614237,5 8.5,5 C8.22385763,5 8,4.77614237 8,4.5 L8,1 L1.70710678,1 Z" id="Shape"></path>
        </g>
    </g>
</svg>