
<svg width="16px" height="16px" viewBox="0 0 16 16" version="1.1" xmlns="http://www.w3.org/2000/svg" xmlns:xlink="http://www.w3.org/1999/xlink">
    <!-- Generator: Sketch 51.2 (57519) - http://www.bohemiancoding.com/sketch -->
    <desc>Created with Sketch.</desc>
    <defs></defs>
    <g id="Symbols" stroke="none" stroke-width="1" fill="none" fill-rule="evenodd">
        <g id="icon/filter" fill-rule="nonzero">
            <g id="funnel-39" transform="translate(0.000000, 2.000000)">
                <path d="M0.5,1 C0.223857625,1 0,0.776142375 0,0.5 C0,0.223857625 0.223857625,0 0.5,0 L15.5,0 C15.7761424,0 16,0.223857625 16,0.5 C16,0.776142375 15.7761424,1 15.5,1 L0.5,1 Z" id="Shape" fill="#626262"></path>
                <path d="M2.5,5 C2.22385763,5 2,4.77614237 2,4.5 C2,4.22385763 2.22385763,4 2.5,4 L13.5,4 C13.7761424,4 14,4.22385763 14,4.5 C14,4.77614237 13.7761424,5 13.5,5 L2.5,5 Z" id="Shape" fill="#9B9B9B"></path>
                <path d="M4.5,9 C4.22385763,9 4,8.77614237 4,8.5 C4,8.22385763 4.22385763,8 4.5,8 L11.5,8 C11.7761424,8 12,8.22385763 12,8.5 C12,8.77614237 11.7761424,9 11.5,9 L4.5,9 Z" id="Shape" fill="#626262"></path>
                <path d="M6.5,13 C6.22385763,13 6,12.7761424 6,12.5 C6,12.2238576 6.22385763,12 6.5,12 L9.5,12 C9.77614237,12 10,12.2238576 10,12.5 C10,12.7761424 9.77614237,13 9.5,13 L6.5,13 Z" id="Shape" fill="#9B9B9B"></path>
            </g>
        </g>
    </g>
</svg>
