<?xml version="1.0" encoding="UTF-8"?>
<svg width="16px" height="16px" viewBox="0 0 16 16" version="1.1" xmlns="http://www.w3.org/2000/svg" xmlns:xlink="http://www.w3.org/1999/xlink">
    <!-- Generator: Sketch 57.1 (83088) - https://sketch.com -->
    <title>topmenu/icon/help</title>
    <desc>Created with Sketch.</desc>
    <g id="topmenu/icon/help" stroke="none" stroke-width="1" fill="none" fill-rule="evenodd">
        <g id="question-help-circle" fill="#626262" fill-rule="nonzero">
            <path d="M5.99999448,6.49393177 C5.99845429,5.44452121 6.80776041,4.57213436 7.85433651,4.49505716 C8.9009128,4.41797994 9.82929055,5.16239156 9.98150049,6.20070508 C10.1337104,7.2390186 9.45805448,8.21857102 8.43339036,8.44512404 C7.90119038,8.54999077 7.50716896,9.02310592 7.50003868,9.57689616 L7.49999448,10.3253333 C7.49999448,10.6014757 7.72385487,10.8253333 7.99999448,10.8253333 C8.27613962,10.8253333 8.49999448,10.6014757 8.49999448,10.3253333 L8.49999448,9.58333333 C8.5009988,9.50876353 8.55863469,9.43955813 8.63811419,9.42387738 C10.1859312,9.08178856 11.19919,7.61278623 10.9709258,6.05566183 C10.7426616,4.49853743 9.35040423,3.38216797 7.78088842,3.49775812 C6.21137333,3.61334821 4.99768468,4.92163687 4.99999448,6.49540156 C5.00040365,6.77154364 5.22459006,6.995072 5.50073214,6.99466613 C5.77687421,6.99426026 6.00040257,6.77007385 5.99999448,6.49393177 Z" id="Path"></path>
            <path d="M7.33333333,12.1613333 C7.33333333,12.5295232 7.63181017,12.828 8,12.828 C8.36818983,12.828 8.66666667,12.5295232 8.66666667,12.1613333 C8.66666667,11.7932489 8.3683607,11.4948376 8.00031619,11.4946667 C7.63181017,11.4946667 7.33333333,11.7931435 7.33333333,12.1613333 Z" id="Path"></path>
            <path d="M8,16 C12.418278,16 16,12.418278 16,8 C16,3.581722 12.418278,-3.55271368e-15 8,-3.55271368e-15 C3.581722,-3.55271368e-15 -6.06348305e-13,3.581722 -6.06348305e-13,8 C-6.06348305e-13,12.418278 3.581722,16 8,16 Z M8,15 C4.13400675,15 1,11.8659932 1,8 C1,4.13400675 4.13400675,1 8,1 C11.8659932,1 15,4.13400675 15,8 C15,11.8659932 11.8659932,15 8,15 Z" id="Oval"></path>
        </g>
    </g>
</svg>