<svg height="16" viewBox="0 0 16 16" width="16" xmlns="http://www.w3.org/2000/svg"><g fill="#626262" fill-rule="nonzero"><g transform="translate(1.833306)"><path d="m6.1666939 11.8333333c.77969611 0 1.42044867.5712202 1.49313342 1.3016091l.00686658.1387126v2.2405005c0 .2651559-.22385763.4801072-.5.4801072-.24545989 0-.44960837-.1698381-.49194433-.3938074l-.00805567-.0862998v-2.2405005c0-.2651559-.22385763-.4801072-.5-.4801072-.24545989 0-.44960837.1698381-.49194433.3938074l-.00805567.0862998v2.2405005c0 .2651559-.22385763.4801072-.5.4801072-.24545989 0-.44960837-.1698381-.49194433-.3938074l-.00805567-.0862998v-2.2405005c0-.7954677.67157287-1.4403217 1.5-1.4403217z"/><path d="m10.1417948.00000557h-7.9502018c-.39122849-.00119452-.75702841.18977563-.97415926.50857994l-1.02329251 1.50197976c-.12821717.1905741-.19519195.41124408-.19412877.63663314v12.20994529c0 .6311824.52234954 1.1428619 1.16668144 1.1428619h10c.6443322 0 1.1666667-.5116798 1.1666667-1.1428619v-12.21223569c0-.22572072-.0681748-.44638752-.196-.63417536l-1.0211969-1.5018391c-.2173405-.31911235-.5831404-.5100825-.9743689-.50888798zm-7.95333334.97959112h7.95489914c.0574601-.00017066.1097203.02711241.1407398.07265703l1.0211237 1.50173164c.0183859.02701079.0281365.05857128.0281365.09092265v12.21223569c0 .0901689-.0746192.1632652-.1666667.1632652h-10c-.09205062 0-.1666761-.0730994-.1666761-.1632652v-12.21223569c-.00015729-.03450518.00941388-.06604051.02750383-.09293041l1.02172494-1.49966395c.03106029-.04560455.08332053-.07288762.13921489-.07271696z"/><path d="m11.8019052 2c.2761423 0 .5.22385763.5.5 0 .24545989-.1768752.44960837-.4101244.49194433l-.0898756.00805567h-11.27066671c-.27614237 0-.5-.22385763-.5-.5 0-.24545989.17687516-.44960837.41012437-.49194433l.08987563-.00805567z"/></g><g transform="translate(1.5 -.055908)"><path d="m3.5 5.0559082c.49091978 0 .89921674.17687516.98388866.41012437l.01611134.08987563v1c0 .27614238-.44771525.5-1 .5-.49091978 0-.89921674-.17687516-.98388866-.41012436l-.01611134-.08987564v-1c0-.27614237.44771525-.5 1-.5z"/><path d="m3.5 9.0559082c.49091978 0 .89921674.17687516.98388866.41012437l.01611134.08987563v1c0 .2761424-.44771525.5-1 .5-.49091978 0-.89921674-.1768752-.98388866-.4101244l-.01611134-.0898756v-1c0-.27614237.44771525-.5 1-.5z"/><path d="m6.5 5.0559082c.49091978 0 .89921674.17687516.98388866.41012437l.01611134.08987563v1c0 .27614238-.44771525.5-1 .5-.49091978 0-.89921674-.17687516-.98388866-.41012436l-.01611134-.08987564v-1c0-.27614237.44771525-.5 1-.5z"/><path d="m6.5 9.0559082c.49091978 0 .89921674.17687516.98388866.41012437l.01611134.08987563v1c0 .2761424-.44771525.5-1 .5-.49091978 0-.89921674-.1768752-.98388866-.4101244l-.01611134-.0898756v-1c0-.27614237.44771525-.5 1-.5z"/><path d="m9.5 5.0559082c.49091978 0 .8992167.17687516.9838887.41012437l.0161113.08987563v1c0 .27614238-.4477153.5-1 .5-.49091978 0-.89921674-.17687516-.98388866-.41012436l-.01611134-.08987564v-1c0-.27614237.44771525-.5 1-.5z"/><path d="m9.5 9.0559082c.49091978 0 .8992167.17687516.9838887.41012437l.0161113.08987563v1c0 .2761424-.4477153.5-1 .5-.49091978 0-.89921674-.1768752-.98388866-.4101244l-.01611134-.0898756v-1c0-.27614237.44771525-.5 1-.5z"/></g></g></svg>