<svg height="16" viewBox="0 0 16 16" width="16" xmlns="http://www.w3.org/2000/svg"><g fill="#626262"><path d="m.5 6c-.27614237 0-.5-.22385763-.5-.5s.22385763-.5.5-.5h15c.2761424 0 .5.22385763.5.5s-.2238576.5-.5.5z"/><path d="m16 5.5c0 .27614237-.2238576.5-.5.5s-.5-.22385763-.5-.5v-2c0-.27614237-.2238576-.5-.5-.5h-13c-.27614237 0-.5.22385763-.5.5v11c0 .2761424.22385763.5.5.5h5c.27614237 0 .5.2238576.5.5s-.22385763.5-.5.5h-5c-.82842712 0-1.5-.6715729-1.5-1.5v-11c0-.82842712.67157288-1.5 1.5-1.5h13c.8284271 0 1.5.67157288 1.5 1.5z"/><path d="m4 .5c0-.27614237.22385763-.5.5-.5s.5.22385763.5.5v2c0 .27614237-.22385763.5-.5.5s-.5-.22385763-.5-.5z"/><path d="m11 .5c0-.27614237.2238576-.5.5-.5s.5.22385763.5.5v2c0 .27614237-.2238576.5-.5.5s-.5-.22385763-.5-.5z"/><path d="m11.5 16c-2.48528137 0-4.5-2.0147186-4.5-4.5 0-2.48528137 2.01471863-4.5 4.5-4.5 2.4852814 0 4.5 2.01471863 4.5 4.5 0 2.4852814-2.0147186 4.5-4.5 4.5zm0-1c1.9329966 0 3.5-1.5670034 3.5-3.5 0-1.93299662-1.5670034-3.5-3.5-3.5-1.93299662 0-3.5 1.56700338-3.5 3.5 0 1.9329966 1.56700338 3.5 3.5 3.5z"/><path d="m11 9.5c0-.27614237.2238576-.5.5-.5s.5.22385763.5.5v4c0 .2761424-.2238576.5-.5.5s-.5-.2238576-.5-.5z"/><path d="m9.5 12c-.27614237 0-.5-.2238576-.5-.5s.22385763-.5.5-.5h4c.2761424 0 .5.2238576.5.5s-.2238576.5-.5.5z"/></g></svg>
