<svg height="16" viewBox="0 0 16 16" width="16" xmlns="http://www.w3.org/2000/svg"><g fill="#7a8090" transform="translate(1)"><path d="m12.5 15c.2758576 0 .5-.2241424.5-.5v-7c0-.27585763-.2241424-.5-.5-.5h-11c-.27585763 0-.5.22414237-.5.5v7c0 .2758576.22414237.5.5.5zm0 1h-11c-.82814237 0-1.5-.6718576-1.5-1.5v-7c0-.82814237.67185763-1.5 1.5-1.5h11c.8281424 0 1.5.67185763 1.5 1.5v7c0 .8281424-.6718576 1.5-1.5 1.5z"/><path d="m4 6.5c0 .27614237-.22385763.5-.5.5s-.5-.22385763-.5-.5v-2.5c0-2.20914237 1.79085763-4 4-4s4 1.79085763 4 4v2.5c0 .27614237-.2238576.5-.5.5s-.5-.22385763-.5-.5v-2.5c0-1.65685763-1.34314237-3-3-3s-3 1.34314237-3 3z"/><path d="m7 13c-1.1045695 0-2-.8954305-2-2s.8954305-2 2-2 2 .8954305 2 2-.8954305 2-2 2zm0-1c.55228475 0 1-.4477153 1-1s-.44771525-1-1-1-1 .4477153-1 1 .44771525 1 1 1z"/></g></svg>