<?xml version="1.0" encoding="UTF-8"?>
<svg width="16px" height="16px" viewBox="0 0 16 16" version="1.1" xmlns="http://www.w3.org/2000/svg" xmlns:xlink="http://www.w3.org/1999/xlink">
    <!-- Generator: Sketch 58 (84663) - https://sketch.com -->
    <title>hi-link</title>
    <desc>Created with Sketch.</desc>
    <g id="Page-1" stroke="none" stroke-width="1" fill="none" fill-rule="evenodd">
        <g id="hi-link" fill="#D8D8D8">
            <path d="M1.61378238,14.3652634 C0.0516852138,12.8031663 0.0516852138,10.2705064 1.61378238,8.70840919 L3.36652985,6.95683631 C3.46413543,6.86596764 3.59393009,6.80796977 3.73727087,6.80796977 C4.02445894,6.80796977 4.25727087,7.0407817 4.25727087,7.32796977 C4.25727087,7.50170083 4.17207327,7.65553292 4.04117971,7.7499644 L2.29167288,9.49635576 C1.1201,10.6679286 1.1201,12.5674236 2.29167288,13.7389964 C3.41638284,14.8637064 5.21194577,14.9086948 6.39032397,13.8739616 L6.53431357,13.7389964 L8.65563391,11.6176761 C9.81353843,10.4597716 9.82704732,8.59083076 8.69616057,7.41633539 C8.57538108,7.32045967 8.4994772,7.17108239 8.4994772,7.0039768 C8.4994772,6.70574304 8.74124344,6.4639768 9.0394772,6.4639768 C9.17391909,6.4639768 9.29688594,6.51310731 9.39140289,6.59439348 L9.39552985,6.59083631 L9.5429597,6.74646188 C10.9523185,8.3169516 10.9019842,10.7339158 9.39195697,12.2439431 L7.27063663,14.3652634 C5.70853946,15.9273606 3.17587955,15.9273606 1.61378238,14.3652634 Z" id="Path"></path>
            <path d="M14.3646382,1.65100426 C15.9267354,3.21310143 15.9267354,5.74576135 14.3646382,7.30785851 L12.6118908,9.05943139 C12.5142852,9.15030006 12.3844905,9.20829793 12.2411498,9.20829793 C11.9539617,9.20829793 11.7211498,8.975486 11.7211498,8.68829793 C11.7211498,8.51456687 11.8063474,8.36073478 11.9372409,8.2663033 L13.6867478,6.51991194 C14.8583206,5.34833907 14.8583206,3.44884413 13.6867478,2.27727126 C12.5620378,1.1525613 10.7664749,1.1075729 9.58809666,2.14230606 L9.44410706,2.27727126 L7.32278672,4.3985916 C6.1648822,5.55649612 6.15137331,7.42543694 7.28226006,8.59993231 C7.40303955,8.69580803 7.47894342,8.84518531 7.47894342,9.0122909 C7.47894342,9.31052466 7.23717719,9.5522909 6.93894342,9.5522909 C6.80450154,9.5522909 6.68153469,9.50316039 6.58701774,9.42187423 L6.58289078,9.42543139 L6.43546093,9.26980582 C5.02610215,7.6993161 5.07643639,5.28235187 6.58646366,3.77232461 L8.707784,1.65100426 C10.2698812,0.0889070965 12.8025411,0.0889070965 14.3646382,1.65100426 Z" id="Path"></path>
        </g>
    </g>
</svg>