<?xml version="1.0" encoding="UTF-8"?>
<svg width="14px" height="16px" viewBox="0 0 14 16" version="1.1" xmlns="http://www.w3.org/2000/svg" xmlns:xlink="http://www.w3.org/1999/xlink">
    <!-- Generator: Sketch 50.2 (55047) - http://www.bohemiancoding.com/sketch -->
    <title>icon/hi-lock-open</title>
    <desc>Created with Sketch.</desc>
    <defs></defs>
    <g id="Page-1" stroke="none" stroke-width="1" fill="none" fill-rule="evenodd">
        <g id="icon/hi-lock-open" transform="translate(-1.000000, 0.000000)" fill="#7A8090">
            <g id="lock-open" transform="translate(1.000000, 0.000000)">
                <path d="M12.5,15 C12.7758576,15 13,14.7758576 13,14.5 L13,7.5 C13,7.22414237 12.7758576,7 12.5,7 L1.5,7 C1.22414237,7 1,7.22414237 1,7.5 L1,14.5 C1,14.7758576 1.22414237,15 1.5,15 L12.5,15 Z M12.5,16 L1.5,16 C0.671857625,16 0,15.3281424 0,14.5 L0,7.5 C0,6.67185763 0.671857625,6 1.5,6 L12.5,6 C13.3281424,6 14,6.67185763 14,7.5 L14,14.5 C14,15.3281424 13.3281424,16 12.5,16 Z" id="Shape" fill-rule="nonzero"></path>
                <path d="M4,6.5 C4,6.77614237 3.77614237,7 3.5,7 C3.22385763,7 3,6.77614237 3,6.5 L3,4 C3,1.79085763 4.79085763,0 7,0 C8.78218129,0 10.333893,1.17485802 10.8342584,2.85748195 C10.9129689,3.12216904 10.7622052,3.40054784 10.4975181,3.47925839 C10.232831,3.55796894 9.95445216,3.40720515 9.87574161,3.14251805 C9.50068132,1.8812688 8.33673204,1 7,1 C5.34314237,1 4,2.34314237 4,4 L4,6.5 Z" id="Shape" fill-rule="nonzero"></path>
                <path d="M7,13 C5.8954305,13 5,12.1045695 5,11 C5,9.8954305 5.8954305,9 7,9 C8.1045695,9 9,9.8954305 9,11 C9,12.1045695 8.1045695,13 7,13 Z M7,12 C7.55228475,12 8,11.5522847 8,11 C8,10.4477153 7.55228475,10 7,10 C6.44771525,10 6,10.4477153 6,11 C6,11.5522847 6.44771525,12 7,12 Z" id="Oval" fill-rule="nonzero"></path>
            </g>
        </g>
    </g>
</svg>