<?xml version="1.0" encoding="UTF-8"?>
<svg width="16px" height="16px" viewBox="0 0 16 16" version="1.1" xmlns="http://www.w3.org/2000/svg" xmlns:xlink="http://www.w3.org/1999/xlink">
    <!-- Generator: Sketch 57.1 (83088) - https://sketch.com -->
    <title>topmenu/icon/settings</title>
    <desc>Created with Sketch.</desc>
    <g id="topmenu/icon/settings" stroke="none" stroke-width="1" fill="none" fill-rule="evenodd">
        <g id="cog" fill="#626262" fill-rule="nonzero">
            <path d="M14.8465709,9.47751916 C15.4828675,9.47751916 15.9986877,8.96169887 15.9986877,8.3254023 L15.9986877,7.67328544 C15.9986877,7.03698887 15.4828675,6.52116858 14.8465709,6.52116858 L13.7801591,6.52116858 C13.6671027,6.07605232 13.5168207,5.64119611 13.3308895,5.22120405 L14.1188032,4.43378621 C14.5687335,3.98372009 14.5687335,3.25442978 14.1189679,2.80452832 L13.1937131,1.88188267 C12.744258,1.43256269 12.0149677,1.43256269 11.5650662,1.8823283 L10.7765028,2.67039569 C10.3568626,2.48443161 9.92232867,2.33415298 9.47751916,2.22114014 L9.47751916,1.15211686 C9.47751916,0.515820288 8.96169887,0 8.3254023,0 L7.67328544,0 C7.03698887,0 6.52116858,0.515820288 6.52116858,1.15211686 L6.52116858,2.2198076 C6.07607795,2.33285085 5.6412655,2.48318321 5.22135123,2.66922236 L4.43268881,1.88204799 C3.98306797,1.43256269 3.25377766,1.43256269 2.8038762,1.8823283 L1.88107745,2.80512704 C1.43125846,3.25508189 1.43125846,3.98437221 1.88102407,4.43427367 L2.6697883,5.22254188 C2.48398749,5.64233905 2.33374117,6.07695921 2.22061787,6.5218207 L1.15211686,6.5218207 C0.515820288,6.5218207 0,7.03764099 0,7.67393756 L0,8.32605442 C0,8.96235099 0.515820288,9.47817128 1.15211686,9.47817128 L2.21801008,9.47817128 C2.33114242,9.92307098 2.48140484,10.3577276 2.66722772,10.7775583 L1.87846899,11.566317 C1.42864999,12.0162719 1.42864999,12.7455622 1.8784156,13.1954637 L2.80444735,14.1182337 C3.25377766,14.5674293 3.98306797,14.5674293 4.43296944,14.1176637 L5.22120485,13.3289323 C5.64119606,13.5148643 6.07605229,13.6651463 6.52116858,13.7782035 L6.52116858,14.8465709 C6.52116858,15.4828675 7.03698887,15.9986877 7.67328544,15.9986877 L8.3254023,15.9986877 C8.96169887,15.9986877 9.47751916,15.4828675 9.47751916,14.8465709 L9.47751916,13.7813475 C9.92231306,13.6682422 10.3568507,13.5179627 10.7765373,13.3320833 L11.5658873,14.120441 C12.0156198,14.5700378 12.7449101,14.5700378 13.1948115,14.1202721 L14.1169582,13.1981255 C14.5667772,12.7481707 14.5667772,12.0188804 14.1170116,11.5689789 L13.3290493,10.7805208 C13.515826,10.3595933 13.6668387,9.923718 13.7805019,9.47751916 L14.8465709,9.47751916 Z M13.3819164,8.47751916 C13.1439375,8.47751916 12.9389361,8.6452506 12.8918157,8.87851785 C12.7667707,9.49754625 12.5609224,10.0974588 12.2795571,10.662849 C12.1838529,10.8551622 12.2216801,11.0871133 12.3735265,11.2390552 L13.4097402,12.2759211 C13.4691817,12.3353805 13.4691817,12.4316705 13.409798,12.4910721 L12.4877582,13.413112 C12.4284099,13.4724423 12.3321199,13.4724423 12.2727183,13.4130586 L11.2350313,12.376676 C11.0831683,12.2250038 10.8514468,12.1871731 10.6592309,12.2826712 C10.0950026,12.5629952 9.49639899,12.7679964 8.87877847,12.8924152 C8.64538824,12.9394313 8.47751916,13.1444897 8.47751916,13.3825685 L8.47751916,14.8465709 C8.47751916,14.9305827 8.40941412,14.9986877 8.3254023,14.9986877 L7.67328544,14.9986877 C7.58927362,14.9986877 7.52116858,14.9305827 7.52116858,14.8465709 L7.52116858,13.379308 C7.52116858,13.1411745 7.35322423,12.936085 7.11976679,12.889126 C6.50172819,12.7648099 5.90270828,12.5598065 5.33809489,12.279382 C5.14573245,12.183842 4.91384437,12.2218276 4.76201854,12.3737489 L3.72580485,13.4106147 C3.66656783,13.4698338 3.57027781,13.4698338 3.5108762,13.4104501 L2.58495123,12.4877868 C2.52624548,12.4290621 2.52624548,12.332772 2.58562915,12.2733704 L3.62244157,11.236558 C3.77425216,11.0847474 3.81220273,10.8529678 3.7167351,10.660669 C3.43646289,10.0961214 3.23144156,9.49725409 3.10691585,8.87938694 C3.05988224,8.64601731 2.85483339,8.47817128 2.61677132,8.47817128 L1.15211686,8.47817128 C1.06810504,8.47817128 1,8.41006624 1,8.32605442 L1,7.67393756 C1,7.58992574 1.06810504,7.5218207 1.15211686,7.5218207 L2.61937979,7.5218207 C2.85744186,7.5218207 3.06249071,7.35397467 3.10952431,7.12060503 C3.23405002,6.50273788 3.43907136,5.90387057 3.71934357,5.339323 C3.81483693,5.14697234 3.77683807,4.9151265 3.62493881,4.76332277 L2.588073,3.72710908 C2.52885394,3.66787206 2.52885394,3.57158204 2.58823762,3.51218043 L3.51092959,2.58948847 C3.57027781,2.53015818 3.66656783,2.53015818 3.72596944,2.58954185 L4.76311586,3.62473162 C4.91501087,3.77634003 5.14671391,3.81410721 5.33889125,3.71858198 C5.90317281,3.4380956 6.50192349,3.2331142 7.11971169,3.10892075 C7.35319512,3.06198377 7.52116858,2.85688223 7.52116858,2.61872767 L7.52116858,1.15211686 C7.52116858,1.06810504 7.58927362,1 7.67328544,1 L8.3254023,1 C8.40941412,1 8.47751916,1.06810504 8.47751916,1.15211686 L8.47751916,2.62003191 C8.47751916,2.85817601 8.64547822,3.06327161 8.8789488,3.11021951 C9.49651356,3.23440376 10.0950348,3.43937679 10.6590753,3.71985187 C10.851367,3.81547096 11.083241,3.77761933 11.2351425,3.62581335 L12.2720083,2.58959967 C12.3314678,2.53015818 12.4277578,2.53015818 12.4871594,2.58954185 L13.4123075,3.51208072 C13.471138,3.57092993 13.471138,3.66721994 13.4117544,3.72662155 L12.3757054,4.76201847 C12.2237839,4.9138443 12.1857983,5.14573242 12.2813383,5.33809489 C12.5617628,5.90270828 12.7667662,6.50172819 12.8910823,7.11976679 C12.9380414,7.35322423 13.1431309,7.52116858 13.3812643,7.52116858 L14.8465709,7.52116858 C14.9305827,7.52116858 14.9986877,7.58927362 14.9986877,7.67328544 L14.9986877,8.3254023 C14.9986877,8.40941412 14.9305827,8.47751916 14.8465709,8.47751916 L13.3819164,8.47751916 Z" id="Path"></path>
            <path d="M8,11.5006667 C9.93299662,11.5006667 11.5,9.93366329 11.5,8.00066667 C11.5,6.06767004 9.93299662,4.50066667 8,4.50066667 C6.06700338,4.50066667 4.5,6.06767004 4.5,8.00066667 C4.5,9.93366329 6.06700338,11.5006667 8,11.5006667 Z M8,10.5006667 C6.61928813,10.5006667 5.5,9.38137854 5.5,8.00066667 C5.5,6.61995479 6.61928813,5.50066667 8,5.50066667 C9.38071187,5.50066667 10.5,6.61995479 10.5,8.00066667 C10.5,9.38137854 9.38071187,10.5006667 8,10.5006667 Z" id="Oval"></path>
        </g>
    </g>
</svg>