
<svg width="22px" height="22px" viewBox="0 0 22 22" version="1.1" xmlns="http://www.w3.org/2000/svg" xmlns:xlink="http://www.w3.org/1999/xlink">
    <defs></defs>
    <g id="Symbols" stroke="none" stroke-width="1" fill="none" fill-rule="evenodd">
        <g id="icon/sort-order" fill-rule="nonzero">
            <path d="M12.5,6 C12.2238576,6 12,5.77614237 12,5.5 C12,5.22385763 12.2238576,5 12.5,5 L21.5,5 C21.7761424,5 22,5.22385763 22,5.5 C22,5.77614237 21.7761424,6 21.5,6 L12.5,6 Z" id="Shape" fill="#9B9B9B"></path>
            <path d="M12.5,12 C12.2238576,12 12,11.7761424 12,11.5 C12,11.2238576 12.2238576,11 12.5,11 L21.5,11 C21.7761424,11 22,11.2238576 22,11.5 C22,11.7761424 21.7761424,12 21.5,12 L12.5,12 Z" id="Shape" fill="#9B9B9B"></path>
            <path d="M12.5,18 C12.2238576,18 12,17.7761424 12,17.5 C12,17.2238576 12.2238576,17 12.5,17 L21.5,17 C21.7761424,17 22,17.2238576 22,17.5 C22,17.7761424 21.7761424,18 21.5,18 L12.5,18 Z" id="Shape" fill="#9B9B9B"></path>
            <path d="M5,3.5 C5,3.22385763 5.22385763,3 5.5,3 C5.77614237,3 6,3.22385763 6,3.5 L6,18.5 C6,18.7761424 5.77614237,19 5.5,19 C5.22385763,19 5,18.7761424 5,18.5 L5,3.5 Z" id="Shape" fill="#7A8090"></path>
            <path d="M10.1464466,13.1464466 C10.3417088,12.9511845 10.6582912,12.9511845 10.8535534,13.1464466 C11.0488155,13.3417088 11.0488155,13.6582912 10.8535534,13.8535534 L5.85355339,18.8535534 C5.65829124,19.0488155 5.34170876,19.0488155 5.14644661,18.8535534 L0.146446609,13.8535534 C-0.0488155365,13.6582912 -0.0488155365,13.3417088 0.146446609,13.1464466 C0.341708755,12.9511845 0.658291245,12.9511845 0.853553391,13.1464466 L5.5,17.7928932 L10.1464466,13.1464466 Z" id="Shape" fill="#7A8090"></path>
        </g>
    </g>
</svg>
