<?xml version="1.0" encoding="UTF-8"?>
<svg width="16px" height="16px" viewBox="0 0 16 16" version="1.1" xmlns="http://www.w3.org/2000/svg" xmlns:xlink="http://www.w3.org/1999/xlink">
    <!-- Generator: Sketch 51.1 (57501) - http://www.bohemiancoding.com/sketch -->
    <title>topmenu/icon/settings</title>
    <desc>Created with Sketch.</desc>
    <defs></defs>
    <g id="topmenu/icon/settings" stroke="none" stroke-width="1" fill="none" fill-rule="evenodd">
        <g id="preferences-circle" fill="#111111" fill-rule="nonzero">
            <path d="M11.5,4 C11.2238576,4 11,3.77614237 11,3.5 C11,3.22385763 11.2238576,3 11.5,3 L15.5,3 C15.7761424,3 16,3.22385763 16,3.5 C16,3.77614237 15.7761424,4 15.5,4 L11.5,4 Z" id="Shape"></path>
            <path d="M0.5,4 C0.223857625,4 0,3.77614237 0,3.5 C0,3.22385763 0.223857625,3 0.5,3 L2.5,3 C2.77614237,3 3,3.22385763 3,3.5 C3,3.77614237 2.77614237,4 2.5,4 L0.5,4 Z" id="Shape"></path>
            <path d="M4.5,12 C4.77614237,12 5,12.2238576 5,12.5 C5,12.7761424 4.77614237,13 4.5,13 L0.5,13 C0.223857625,13 0,12.7761424 0,12.5 C0,12.2238576 0.223857625,12 0.5,12 L4.5,12 Z" id="Shape"></path>
            <path d="M15.5,12 C15.7761424,12 16,12.2238576 16,12.5 C16,12.7761424 15.7761424,13 15.5,13 L13.5,13 C13.2238576,13 13,12.7761424 13,12.5 C13,12.2238576 13.2238576,12 13.5,12 L15.5,12 Z" id="Shape"></path>
            <path d="M5.5,7 C3.56700338,7 2,5.43299662 2,3.5 C2,1.56700338 3.56700338,0 5.5,0 C7.43299662,0 9,1.56700338 9,3.5 C9,5.43299662 7.43299662,7 5.5,7 Z M5.5,6 C6.88071187,6 8,4.88071187 8,3.5 C8,2.11928813 6.88071187,1 5.5,1 C4.11928813,1 3,2.11928813 3,3.5 C3,4.88071187 4.11928813,6 5.5,6 Z" id="Oval"></path>
            <path d="M10.5,16 C8.56700338,16 7,14.4329966 7,12.5 C7,10.5670034 8.56700338,9 10.5,9 C12.4329966,9 14,10.5670034 14,12.5 C14,14.4329966 12.4329966,16 10.5,16 Z M10.5,15 C11.8807119,15 13,13.8807119 13,12.5 C13,11.1192881 11.8807119,10 10.5,10 C9.11928813,10 8,11.1192881 8,12.5 C8,13.8807119 9.11928813,15 10.5,15 Z" id="Oval"></path>
        </g>
    </g>
</svg>