<?xml version="1.0" encoding="UTF-8"?>
<svg width="13px" height="16px" viewBox="0 0 13 16" version="1.1" xmlns="http://www.w3.org/2000/svg" xmlns:xlink="http://www.w3.org/1999/xlink">
    <!-- Generator: Sketch 52.2 (67145) - http://www.bohemiancoding.com/sketch -->
    <title>Combined Shape</title>
    <desc>Created with Sketch.</desc>
    <g id="Page-1" stroke="none" stroke-width="1" fill="none" fill-rule="evenodd">
        <g id="hi-stopwatch" fill="#000000">
            <path d="M6.5,16 C10.0898509,16 13,13.0898509 13,9.5 C13,5.91014913 10.0898509,3 6.5,3 C2.91014913,3 0,5.91014913 0,9.5 C0,13.0898509 2.91014913,16 6.5,16 Z M6.5,15 C9.53756612,15 12,12.5375661 12,9.5 C12,6.46243388 9.53756612,4 6.5,4 C3.46243388,4 1,6.46243388 1,9.5 C1,12.5375661 3.46243388,15 6.5,15 Z M6.5,6 C6.77614237,6 7,6.22385763 7,6.5 L7,9.5 C7,9.77614237 6.77614237,10 6.5,10 C6.22385763,10 6,9.77614237 6,9.5 L6,6.5 C6,6.22385763 6.22385763,6 6.5,6 Z M7,1 L7,1.5 C7,1.77614237 6.77614237,2 6.5,2 C6.22385763,2 6,1.77614237 6,1.5 L6,1 L3.5,1 C3.22385763,1 3,0.776142375 3,0.5 C3,0.223857625 3.22385763,5.07265313e-17 3.5,0 L9.5,0 C9.77614237,-5.07265313e-17 10,0.223857625 10,0.5 C10,0.776142375 9.77614237,1 9.5,1 L7,1 Z" id="Combined-Shape"></path>
        </g>
    </g>
</svg>
