<?xml version="1.0" encoding="UTF-8"?>
<svg width="16px" height="16px" viewBox="0 0 16 16" version="1.1" xmlns="http://www.w3.org/2000/svg" xmlns:xlink="http://www.w3.org/1999/xlink">
    <!-- Generator: Sketch 52.2 (67145) - http://www.bohemiancoding.com/sketch -->
    <title>hi-time</title>
    <desc>Created with Sketch.</desc>
    <g id="Page-1" stroke="none" stroke-width="1" fill="none" fill-rule="evenodd">
        <g id="hi-time" fill="#000000" fill-rule="nonzero">
            <path d="M8,1 C4.1325,1 1,4.1325 1,8 C1,11.8675 4.1325,15 8,15 C11.8675,15 15,11.8675 15,8 C15,4.1325 11.8675,1 8,1 Z M8,16 C3.58666667,16 0,12.4133333 0,8 C0,3.58666667 3.58666667,0 8,0 C12.4133333,0 16,3.58666667 16,8 C16,12.4133333 12.4133333,16 8,16 Z M8,7 L11.5,7 C11.7761424,7 12,7.22385763 12,7.5 C12,7.77614237 11.7761424,8 11.5,8 L7.5,8 C7.22385763,8 7,7.77614237 7,7.5 L7,3.5 C7,3.22385763 7.22385763,3 7.5,3 C7.77614237,3 8,3.22385763 8,3.5 L8,7 Z"></path>
        </g>
    </g>
</svg>
