<?xml version="1.0" encoding="UTF-8"?>
<svg width="16px" height="16px" viewBox="0 0 16 16" version="1.1" xmlns="http://www.w3.org/2000/svg" xmlns:xlink="http://www.w3.org/1999/xlink">
    <!-- Generator: Sketch 50.2 (55047) - http://www.bohemiancoding.com/sketch -->
    <title>hi-tag</title>
    <desc>Created with Sketch.</desc>
    <defs></defs>
    <g id="Page-1" stroke="none" stroke-width="1" fill="none" fill-rule="evenodd">
        <g id="icon/tag" fill="#7A8090" fill-rule="nonzero">
            <path d="M3.66433736,1.04276942 L1.04276942,3.66433736 L1.96060074,8.25349396 L8.5,14.7928932 L14.7928932,8.5 L8.25349396,1.96060074 L3.66433736,1.04276942 Z M3.59805807,0.00970966215 L8.59805807,1.00970966 C8.69485363,1.02906877 8.78375312,1.07664634 8.85355339,1.14644661 L15.8535534,8.14644661 C16.0488155,8.34170876 16.0488155,8.65829124 15.8535534,8.85355339 L8.85355339,15.8535534 C8.65829124,16.0488155 8.34170876,16.0488155 8.14644661,15.8535534 L1.14644661,8.85355339 C1.07664634,8.78375312 1.02906877,8.69485363 1.00970966,8.59805807 L0.00970966215,3.59805807 C-0.0230763653,3.43412793 0.0282349062,3.26465831 0.146446609,3.14644661 L3.14644661,0.146446609 C3.26465831,0.0282349062 3.43412793,-0.0230763653 3.59805807,0.00970966215 Z" id="Shape"></path>
            <circle id="Oval" cx="5" cy="5" r="1"></circle>
        </g>
    </g>
</svg>