<?xml version="1.0" encoding="UTF-8"?>
<svg width="16px" height="14px" viewBox="0 0 16 14" version="1.1" xmlns="http://www.w3.org/2000/svg" xmlns:xlink="http://www.w3.org/1999/xlink">
    <!-- Generator: Sketch 50.2 (55047) - http://www.bohemiancoding.com/sketch -->
    <title>hi-user-assign</title>
    <desc>Created with Sketch.</desc>
    <defs></defs>
    <g id="Page-1" stroke="none" stroke-width="1" fill="none" fill-rule="evenodd">
        <g id="icon/user-assign" transform="translate(0.000000, -1.000000)" fill="#626262">
            <g id="assign" transform="translate(0.000000, 1.000000)">
                <path d="M10.5,7 C8.56700338,7 7,5.43299662 7,3.5 C7,1.56700338 8.56700338,0 10.5,0 C12.4329966,0 14,1.56700338 14,3.5 C14,5.43299662 12.4329966,7 10.5,7 Z M10.5,6 C11.8807119,6 13,4.88071187 13,3.5 C13,2.11928813 11.8807119,1 10.5,1 C9.11928813,1 8,2.11928813 8,3.5 C8,4.88071187 9.11928813,6 10.5,6 Z" id="Oval" fill-rule="nonzero"></path>
                <path d="M16,13.5 C16,13.7761424 15.7761424,14 15.5,14 L5.5,14 C5.22385763,14 5,13.7761424 5,13.5 C5,10.4624339 7.46243388,8 10.5,8 C13.5375661,8 16,10.4624339 16,13.5 Z M10.5,9 C8.18372317,9 6.27618653,10.7500248 6.02746439,13 L14.9725356,13 C14.7238135,10.7500248 12.8162768,9 10.5,9 Z" id="Shape" fill-rule="nonzero"></path>
                <path d="M0.5,8 C0.223857625,8 0,7.77614237 0,7.5 C0,7.22385763 0.223857625,7 0.5,7 L4.5,7 C4.77614237,7 5,7.22385763 5,7.5 C5,7.77614237 4.77614237,8 4.5,8 L0.5,8 Z" id="Shape" fill-rule="nonzero"></path>
                <path d="M2.6095656,5.31234752 C2.43706082,5.09671656 2.47202151,4.78207037 2.68765248,4.6095656 C2.90328344,4.43706082 3.21792963,4.47202151 3.3904344,4.68765248 L5.3904344,7.18765248 C5.53652187,7.3702618 5.53652187,7.6297382 5.3904344,7.81234752 L3.3904344,10.3123475 C3.21792963,10.5279785 2.90328344,10.5629392 2.68765248,10.3904344 C2.47202151,10.2179296 2.43706082,9.90328344 2.6095656,9.68765248 L4.35968758,7.5 L2.6095656,5.31234752 Z" id="Shape-Copy" fill-rule="nonzero"></path>
            </g>
        </g>
    </g>
</svg>
