<?xml version="1.0" encoding="UTF-8"?>
<svg width="16px" height="16px" viewBox="0 0 16 16" version="1.1" xmlns="http://www.w3.org/2000/svg" xmlns:xlink="http://www.w3.org/1999/xlink">
    <!-- Generator: Sketch 58 (84663) - https://sketch.com -->
    <title>hi-archive-box</title>
    <desc>Created with Sketch.</desc>
    <g stroke="none" stroke-width="1" fill="none" fill-rule="evenodd">
      <path d="M3.5,0 C3.77614237,0 4,0.223857625 4,0.5 C4,0.776142375 3.77614237,1 3.5,1 L1.5,1 C1.25454011,1 1.05039163,1.17687516 1.00805567,1.41012437 L1,1.5 L1,12 L15,12 L15,1.5 C15,1.25454011 14.8231248,1.05039163 14.5898756,1.00805567 L14.5,1 L12.5,1 C12.2238576,1 12,0.776142375 12,0.5 C12,0.223857625 12.2238576,0 12.5,0 L14.5,0 C15.3284271,0 16,0.671572875 16,1.5 L16,14.5 C16,15.3284271 15.3284271,16 14.5,16 L1.5,16 C0.671572875,16 0,15.3284271 0,14.5 L0,1.5 C0,0.671572875 0.671572875,0 1.5,0 L3.5,0 Z M15,13 L1,13 L1,14.5 C1,14.7454599 1.17687516,14.9496084 1.41012437,14.9919443 L1.5,15 L14.5,15 C14.7454599,15 14.9496084,14.8231248 14.9919443,14.5898756 L15,14.5 L15,13 Z" id="Shape"></path>
      <path d="M9.5,0 C9.77614237,0 10,0.223857625 10,0.5 L10,5 L11.5,5 C11.7761424,5 12,5.22385763 12,5.5 C12,5.65954893 11.9252702,5.80164379 11.8089034,5.89319196 L8.38273909,9.83337459 C8.28138103,9.94997371 8.13787692,10.0082508 7.99461558,10.0052418 C7.85067536,10.0085228 7.70673725,9.95024614 7.60514237,9.83337459 L4.11759373,5.82214364 C4.04421879,5.73513204 4,5.62272994 4,5.5 C4,5.22385763 4.22385763,5 4.5,5 L6,5 L6,0.5 C6,0.223857625 6.22385763,0 6.5,0 L9.5,0 Z M9,1 L7,1 L7,5.5 C7,5.74545989 6.82312484,5.94960837 6.58987563,5.99194433 L6.5,6 L5.597,6 L7.993,8.757 L10.39,6 L9.5,6 C9.22385763,6 9,5.77614237 9,5.5 L9,1 Z" id="Shape"></path>
    </g>
</svg>
