<svg height="16" viewBox="0 0 16 16" width="16" xmlns="http://www.w3.org/2000/svg"><g fill="#626262"><path d="m14.5 2c.8281424 0 1.5.67185763 1.5 1.5v11c0 .8281424-.6718576 1.5-1.5 1.5h-13c-.82814237 0-1.5-.6718576-1.5-1.5v-11c0-.82814237.67185763-1.5 1.5-1.5zm0 1h-13c-.27585763 0-.5.22414237-.5.5v11c0 .2758576.22414237.5.5.5h13c.2758576 0 .5-.2241424.5-.5v-11c0-.27585763-.2241424-.5-.5-.5z"/><path d="m.5 6c-.27614237 0-.5-.22385763-.5-.5s.22385763-.5.5-.5h15c.2761424 0 .5.22385763.5.5s-.2238576.5-.5.5z"/><path d="m4 .5c0-.27614237.22385763-.5.5-.5s.5.22385763.5.5v2c0 .27614237-.22385763.5-.5.5s-.5-.22385763-.5-.5z"/><path d="m11 .5c0-.27614237.2238576-.5.5-.5s.5.22385763.5.5v2c0 .27614237-.2238576.5-.5.5s-.5-.22385763-.5-.5z"/><path d="m5 7.5c0-.27614237.22385763-.5.5-.5s.5.22385763.5.5v6c0 .2761424-.22385763.5-.5.5s-.5-.2238576-.5-.5z"/><path d="m10 7.5c0-.27614237.2238576-.5.5-.5s.5.22385763.5.5v6c0 .2761424-.2238576.5-.5.5s-.5-.2238576-.5-.5z"/><path d="m2.5 11c-.27614237 0-.5-.2238576-.5-.5s.22385763-.5.5-.5h11c.2761424 0 .5.2238576.5.5s-.2238576.5-.5.5z"/></g></svg>
