<svg height="16" viewBox="0 0 16 16" width="16" xmlns="http://www.w3.org/2000/svg"><g fill="#4a4a4a"><path d="m4 12h-2.5c-.84085946 0-1.5-.9762615-1.5-1.8666667v-8.5333333c0-.85829094.66410224-1.56666667 1.5-1.56666667h13c.8358978 0 1.5.70837573 1.5 1.56666667v8.5333333c0 .8547294-1.1551628 1.8666667-2 1.8666667h-4.81108779l-4.35828521 3.8417477c-.32290202.2846322-.830627.055362-.830627-.375081zm1 2.3594033 3.669373-3.2344843c.09132599-.0805022.20888534-.124919.330627-.124919h5c.3198315 0 1-.5958362 1-.8666667v-8.5333333c0-.31991652-.2313283-.56666667-.5-.56666667h-13c-.26867174 0-.5.24675015-.5.56666667v8.5333333c0 .4022485.31356033.8666667.5.8666667h3c.27614237 0 .5.2238576.5.5z"/><path d="m8.5 8c-.27614237 0-.5-.22385763-.5-.5s.22385763-.5.5-.5h4c.2761424 0 .5.22385763.5.5s-.2238576.5-.5.5z"/><path d="m3.5 8c-.27614237 0-.5-.22385763-.5-.5s.22385763-.5.5-.5h2c.27614237 0 .5.22385763.5.5s-.22385763.5-.5.5z"/></g></svg>