<?xml version="1.0" encoding="UTF-8"?>
<svg width="16px" height="16px" viewBox="0 0 16 16" version="1.1" xmlns="http://www.w3.org/2000/svg" xmlns:xlink="http://www.w3.org/1999/xlink">
    <!-- Generator: Sketch 50.2 (55047) - http://www.bohemiancoding.com/sketch -->
    <title>hi-edit</title>
    <desc>Created with Sketch.</desc>
    <defs></defs>
    <g id="Page-1" stroke="none" stroke-width="1" fill="none" fill-rule="evenodd">
        <g id="item-view-/-history-edit" fill="#91A9BB" fill-rule="nonzero">
            <path d="M5.44516828,8.7619385 L4.72801099,11.271989 L7.2380615,10.5548317 L14.7928932,3 L13,1.20710678 L5.44516828,8.7619385 Z M13.3535534,0.146446609 L15.8535534,2.64644661 C16.0488155,2.84170876 16.0488155,3.15829124 15.8535534,3.35355339 L7.85355339,11.3535534 C7.79346903,11.4136378 7.7190633,11.4574183 7.63736056,11.480762 L4.13736056,12.480762 C3.76018462,12.5885265 3.41147347,12.2398154 3.51923803,11.8626394 L4.51923803,8.36263944 C4.54258166,8.2809367 4.58636224,8.20653097 4.64644661,8.14644661 L12.6464466,0.146446609 C12.8417088,-0.0488155365 13.1582912,-0.0488155365 13.3535534,0.146446609 Z" id="Shape"></path>
            <path d="M10.6464466,2.85355339 C10.4511845,2.65829124 10.4511845,2.34170876 10.6464466,2.14644661 C10.8417088,1.95118446 11.1582912,1.95118446 11.3535534,2.14644661 L13.8535534,4.64644661 C14.0488155,4.84170876 14.0488155,5.15829124 13.8535534,5.35355339 C13.6582912,5.54881554 13.3417088,5.54881554 13.1464466,5.35355339 L10.6464466,2.85355339 Z" id="Shape"></path>
            <path d="M13,9.5 C13,9.22385763 13.2238576,9 13.5,9 C13.7761424,9 14,9.22385763 14,9.5 L14,14.5 C14,15.3281424 13.3281424,16 12.5,16 L1.5,16 C0.671857625,16 0,15.3281424 0,14.5 L0,3.5 C0,2.67185763 0.671857625,2 1.5,2 L6.5,2 C6.77614237,2 7,2.22385763 7,2.5 C7,2.77614237 6.77614237,3 6.5,3 L1.5,3 C1.22414237,3 1,3.22414237 1,3.5 L1,14.5 C1,14.7758576 1.22414237,15 1.5,15 L12.5,15 C12.7758576,15 13,14.7758576 13,14.5 L13,9.5 Z" id="Shape"></path>
        </g>
    </g>
</svg>