<?xml version="1.0" encoding="UTF-8"?>
<svg width="16px" height="16px" viewBox="0 0 16 16" version="1.1" xmlns="http://www.w3.org/2000/svg" xmlns:xlink="http://www.w3.org/1999/xlink">
    <!-- Generator: Sketch 51.1 (57501) - http://www.bohemiancoding.com/sketch -->
    <title>ItemList/event</title>
    <desc>Created with Sketch.</desc>
    <defs></defs>
    <g id="ItemList/event" stroke="none" stroke-width="1" fill="none" fill-rule="evenodd">
        <path d="M2,2.5 L14,2.5 C16.209139,2.5 16,2.290861 16,4.5 L16,13 C16,15.209139 15.209139,16 13,16 L2.5,16 C0.290861001,16 -2.71133801e-12,14.709139 -2.71160958e-12,12.5 L-1.82120381e-12,4 C-2.71160958e-12,3 1,2.5 2,2.5 Z" id="Path-Copy" fill="#FFFFFF" fill-rule="nonzero"></path>
        <g id="calendar-60" fill="#9298B0" fill-rule="nonzero">
            <path d="M0.5,6 C0.223857625,6 0,5.77614237 0,5.5 C0,5.22385763 0.223857625,5 0.5,5 L15.5,5 C15.7761424,5 16,5.22385763 16,5.5 C16,5.77614237 15.7761424,6 15.5,6 L0.5,6 Z" id="Shape"></path>
            <path d="M14.5,2 C15.3281424,2 16,2.67185763 16,3.5 L16,14.5 C16,15.3281424 15.3281424,16 14.5,16 L1.5,16 C0.671857625,16 0,15.3281424 0,14.5 L0,3.5 C0,2.67185763 0.671857625,2 1.5,2 L14.5,2 Z M14.5,3 L1.5,3 C1.22414237,3 1,3.22414237 1,3.5 L1,14.5 C1,14.7758576 1.22414237,15 1.5,15 L14.5,15 C14.7758576,15 15,14.7758576 15,14.5 L15,3.5 C15,3.22414237 14.7758576,3 14.5,3 Z" id="Shape"></path>
            <path d="M4,0.5 C4,0.223857625 4.22385763,0 4.5,0 C4.77614237,0 5,0.223857625 5,0.5 L5,2.5 C5,2.77614237 4.77614237,3 4.5,3 C4.22385763,3 4,2.77614237 4,2.5 L4,0.5 Z" id="Shape"></path>
            <path d="M11,0.5 C11,0.223857625 11.2238576,0 11.5,0 C11.7761424,0 12,0.223857625 12,0.5 L12,2.5 C12,2.77614237 11.7761424,3 11.5,3 C11.2238576,3 11,2.77614237 11,2.5 L11,0.5 Z" id="Shape"></path>
        </g>
    </g>
</svg>