<svg height="16" viewBox="0 0 16 16" width="16" xmlns="http://www.w3.org/2000/svg"><g fill="none" transform="translate(0 2)"><path d="m.5 1c-.27614237 0-.5-.22385762-.5-.5 0-.27614237.22385763-.5.5-.5h15c.2761424 0 .5.22385763.5.5 0 .27614238-.2238576.5-.5.5z" fill="#7a8090"/><path d="m2.5 5c-.27614237 0-.5-.22385763-.5-.5s.22385763-.5.5-.5h11c.2761424 0 .5.22385763.5.5s-.2238576.5-.5.5z" fill="#9b9b9b"/><path d="m4.5 9c-.27614237 0-.5-.22385763-.5-.5s.22385763-.5.5-.5h7c.2761424 0 .5.22385763.5.5s-.2238576.5-.5.5z" fill="#7a8090"/><path d="m6.5 13c-.27614237 0-.5-.2238576-.5-.5s.22385763-.5.5-.5h3c.27614237 0 .5.2238576.5.5s-.22385763.5-.5.5z" fill="#9b9b9b"/></g></svg>