<?xml version="1.0" encoding="UTF-8"?>
<svg width="16px" height="16px" viewBox="0 0 16 16" version="1.1" xmlns="http://www.w3.org/2000/svg" xmlns:xlink="http://www.w3.org/1999/xlink">
    <!-- Generator: Sketch 50.2 (55047) - http://www.bohemiancoding.com/sketch -->
    <title>hi-group</title>
    <desc>Created with Sketch.</desc>
    <defs></defs>
    <g id="Page-1" stroke="none" stroke-width="1" fill="none" fill-rule="evenodd">
        <g id="icon/group" fill="#D1D1D1" fill-rule="nonzero">
            <path d="M3,3 C2.44771525,3 2,3.44771525 2,4 C2,4.55228475 2.44771525,5 3,5 C3.55228475,5 4,4.55228475 4,4 C4,3.44771525 3.55228475,3 3,3 Z M3,2 C4.1045695,2 5,2.8954305 5,4 C5,5.1045695 4.1045695,6 3,6 C1.8954305,6 1,5.1045695 1,4 C1,2.8954305 1.8954305,2 3,2 Z" id="Rectangle-path"></path>
            <path d="M2,14 L3.5,14 C3.77614237,14 4,14.2238576 4,14.5 C4,14.7761424 3.77614237,15 3.5,15 L1.5,15 C1.22385763,15 1,14.7761424 1,14.5 L1,12 L0.5,12 C0.223857625,12 0,11.7761424 0,11.5 L0,8.5 C-8.32667268e-17,7.67157288 0.671572875,7 1.5,7 L2.5,7 C2.77614237,7 3,7.22385763 3,7.5 C3,7.77614237 2.77614237,8 2.5,8 L1.5,8 C1.22385763,8 1,8.22385763 1,8.5 L1,11 L1.5,11 C1.77614237,11 2,11.2238576 2,11.5 L2,14 Z" id="Shape"></path>
            <path d="M13,3 C12.4477153,3 12,3.44771525 12,4 C12,4.55228475 12.4477153,5 13,5 C13.5522847,5 14,4.55228475 14,4 C14,3.44771525 13.5522847,3 13,3 Z M13,2 C14.1045695,2 15,2.8954305 15,4 C15,5.1045695 14.1045695,6 13,6 C11.8954305,6 11,5.1045695 11,4 C11,2.8954305 11.8954305,2 13,2 Z" id="Rectangle-path" transform="translate(13.000000, 4.000000) rotate(-180.000000) translate(-13.000000, -4.000000) "></path>
            <path d="M15,12 L15,14.5 C15,14.7761424 14.7761424,15 14.5,15 L12.5,15 C12.2238576,15 12,14.7761424 12,14.5 C12,14.2238576 12.2238576,14 12.5,14 L14,14 L14,11.5 C14,11.2238576 14.2238576,11 14.5,11 L15,11 L15,8.5 C15,8.22385763 14.7761424,8 14.5,8 L13.5,8 C13.2238576,8 13,7.77614237 13,7.5 C13,7.22385763 13.2238576,7 13.5,7 L14.5,7 C15.3284271,7 16,7.67157288 16,8.5 L16,11.5 C16,11.7761424 15.7761424,12 15.5,12 L15,12 Z" id="Shape"></path>
            <path d="M8,1 C7.17157288,1 6.5,1.67157288 6.5,2.5 C6.5,3.32842712 7.17157288,4 8,4 C8.82842712,4 9.5,3.32842712 9.5,2.5 C9.5,1.67157288 8.82842712,1 8,1 Z M8,0 C9.38071187,-2.77555756e-16 10.5,1.11928813 10.5,2.5 C10.5,3.88071187 9.38071187,5 8,5 C6.61928813,5 5.5,3.88071187 5.5,2.5 C5.5,1.11928813 6.61928813,2.77555756e-16 8,0 Z" id="Rectangle-path"></path>
            <path d="M10,15 L10,11.5 C10,11.2238576 10.2238576,11 10.5,11 L11,11 L11,8.5 C11,7.67157288 10.3284271,7 9.5,7 L6.5,7 C5.67157288,7 5,7.67157288 5,8.5 L5,11 L5.5,11 C5.77614237,11 6,11.2238576 6,11.5 L6,15 L10,15 Z M11,12 L11,15.5 C11,15.7761424 10.7761424,16 10.5,16 L5.5,16 C5.22385763,16 5,15.7761424 5,15.5 L5,12 L4.5,12 C4.22385763,12 4,11.7761424 4,11.5 L4,8.5 C4,7.11928813 5.11928813,6 6.5,6 L9.5,6 C10.8807119,6 12,7.11928813 12,8.5 L12,11.5 C12,11.7761424 11.7761424,12 11.5,12 L11,12 Z" id="Shape"></path>
        </g>
    </g>
</svg>