<svg xmlns="http://www.w3.org/2000/svg" width="16" height="16" viewBox="0 0 16 16">
    <g fill="none" fill-rule="evenodd">
        <path fill="#4A4A4A" d="M5 2.296c.192-.174.402-.339.63-.495a4.555 4.555 0 0 1 1.625-.698A4.771 4.771 0 0 1 8.276 1c.486 0 .934.069 1.345.207.412.138.765.336 1.063.594.297.258.529.568.697.931.168.364.252.77.252 1.22 0 .456-.067.85-.202 1.184a3.278 3.278 0 0 1-.509.868c-.204.246-.427.46-.67.644-.244.183-.471.355-.684.517a4.76 4.76 0 0 0-.55.481.972.972 0 0 0-.274.536l-.171 1.359H7.376L7.25 8.056c-.03-.276.018-.516.144-.72a2.55 2.55 0 0 1 .49-.572c.202-.177.425-.349.671-.517.246-.168.474-.355.684-.563.21-.207.387-.44.531-.702a1.9 1.9 0 0 0 .216-.931c0-.246-.048-.468-.144-.666a1.525 1.525 0 0 0-.396-.508 1.776 1.776 0 0 0-.594-.324 2.319 2.319 0 0 0-.729-.113c-.36 0-.666.043-.918.13a3.74 3.74 0 0 0-1.08.568c-.114.087-.21.13-.288.13a.396.396 0 0 1-.378-.225L5 2.296zm1.746 10.719a1.181 1.181 0 0 1 .337-.837 1.167 1.167 0 0 1 1.301-.257 1.221 1.221 0 0 1 .634.635c.064.144.095.297.095.459 0 .168-.031.324-.095.468-.063.144-.148.27-.256.378a1.181 1.181 0 0 1-.837.342c-.168 0-.324-.03-.468-.09a1.11 1.11 0 0 1-.373-.252 1.197 1.197 0 0 1-.338-.846z"/>
    </g>
</svg>
