<?xml version="1.0" encoding="UTF-8"?>
<svg width="16px" height="16px" viewBox="0 0 16 16" version="1.1" xmlns="http://www.w3.org/2000/svg" xmlns:xlink="http://www.w3.org/1999/xlink">
    <!-- Generator: Sketch 50.2 (55047) - http://www.bohemiancoding.com/sketch -->
    <title>hi-item-project</title>
    <desc>Created with Sketch.</desc>
    <defs></defs>
    <g id="Page-1" stroke="none" stroke-width="1" fill="none" fill-rule="evenodd">
        <g id="icon/item-project" fill="#7A8090" fill-rule="nonzero">
            <path d="M0.5,7 C0.223857625,7 0,6.77614237 0,6.5 C0,6.22385763 0.223857625,6 0.5,6 L15.5,6 C15.7761424,6 16,6.22385763 16,6.5 C16,6.77614237 15.7761424,7 15.5,7 L0.5,7 Z" id="Shape"></path>
            <path d="M7.76759188,3 L15.5,3 C15.7761424,3 16,3.22385763 16,3.5 L16,13.5 C16,14.8811424 14.8811424,16 13.5,16 L2.5,16 C1.11885763,16 0,14.8811424 0,13.5 L0,0.5 C0,0.223857625 0.223857625,0 0.5,0 L5.5,0 C5.66717659,0 5.82329226,0.0835505677 5.91602515,0.222649902 L7.76759188,3 Z M15,4 L7.5,4 C7.33282341,4 7.17670774,3.91644943 7.08397485,3.7773501 L5.23240812,1 L1,1 L1,13.5 C1,14.3288576 1.67114237,15 2.5,15 L13.5,15 C14.3288576,15 15,14.3288576 15,13.5 L15,4 Z" id="Shape"></path>
        </g>
    </g>
</svg>