<svg height="16" viewBox="0 0 16 16" width="16" xmlns="http://www.w3.org/2000/svg"><path d="m4 6c0-.27614237.22385763-.5.5-.5s.5.22385763.5.5v4c0 .8288576.67114237 1.5 1.5 1.5s1.5-.6711424 1.5-1.5v-5c0-1.93285763-1.56714237-3.5-3.5-3.5s-3.5 1.56714237-3.5 3.5v5.5c0 2.7618576 2.23814237 5 5 5s5-2.2381424 5-5v-5.5c0-.27614237.2238576-.5.5-.5s.5.22385763.5.5v5.5c0 3.3141424-2.68585763 6-6 6s-6-2.6858576-6-6v-5.5c0-2.48514237 2.01485763-4.5 4.5-4.5s4.5 2.01485763 4.5 4.5v5c0 1.3811424-1.11885763 2.5-2.5 2.5s-2.5-1.1188576-2.5-2.5z" fill="#7a8090" transform="translate(2)"/></svg>