<svg height="16" viewBox="0 0 16 16" width="16" xmlns="http://www.w3.org/2000/svg"><g fill="#7a8090" transform="translate(1)"><path d="m1 1v14h12v-14zm-.5-1h13c.2761424 0 .5.22385763.5.5v15c0 .2761424-.2238576.5-.5.5h-13c-.27614237 0-.5-.2238576-.5-.5v-15c0-.27614237.22385763-.5.5-.5z"/><path d="m3.5 4c-.27614237 0-.5-.22385763-.5-.5s.22385763-.5.5-.5h7c.2761424 0 .5.22385763.5.5s-.2238576.5-.5.5z"/><path d="m3.5 7c-.27614237 0-.5-.22385763-.5-.5s.22385763-.5.5-.5h7c.2761424 0 .5.22385763.5.5s-.2238576.5-.5.5z"/><path d="m3.5 10c-.27614237 0-.5-.22385763-.5-.5s.22385763-.5.5-.5h7c.2761424 0 .5.22385763.5.5s-.2238576.5-.5.5z"/><path d="m3.5 13c-.27614237 0-.5-.2238576-.5-.5s.22385763-.5.5-.5h3c.27614237 0 .5.2238576.5.5s-.22385763.5-.5.5z"/></g></svg>