<svg height="16" viewBox="0 0 16 16" width="16" xmlns="http://www.w3.org/2000/svg"><g fill="#7a8090" transform="translate(1)"><path d="m11.5 2c-.2761424 0-.5-.22385763-.5-.5s.2238576-.5.5-.5h1c.8284271 0 1.5.67157288 1.5 1.5v12c0 .8284271-.6715729 1.5-1.5 1.5h-11c-.82842712 0-1.5-.6715729-1.5-1.5v-12c0-.82842712.67157288-1.5 1.5-1.5h1c.27614237 0 .5.22385763.5.5s-.22385763.5-.5.5h-1c-.27614237 0-.5.22385763-.5.5v12c0 .2761424.22385763.5.5.5h11c.2761424 0 .5-.2238576.5-.5v-12c0-.27614237-.2238576-.5-.5-.5z"/><path d="m5 1v1h4v-1zm-.5-1h5c.27614237 0 .5.22385763.5.5v2c0 .27614237-.22385763.5-.5.5h-5c-.27614237 0-.5-.22385763-.5-.5v-2c0-.27614237.22385763-.5.5-.5z"/><path d="m9.64644661 6.64644661c.19526215-.19526215.51184459-.19526215.70710679 0 .1952621.19526215.1952621.51184463 0 .70710678l-4.00000001 4.00000001c-.19526215.1952621-.51184463.1952621-.70710678 0l-2-2.00000001c-.19526215-.19526215-.19526215-.51184463 0-.70710678s.51184463-.19526215.70710678 0l1.64644661 1.64644659z"/></g></svg>