<svg height="16" viewBox="0 0 16 16" width="16" xmlns="http://www.w3.org/2000/svg"><g fill="#626262" fill-rule="nonzero"><circle cx="5" cy="7.5" r="1"/><path d="m5 9.5c1.1045695 0 2 .8954305 2 2h-4c0-1.1045695.8954305-2 2-2z"/><path d="m12.5 7.5c.2761424 0 .5.22385763.5.5 0 .24545989-.1768752.44960837-.4101244.49194433l-.0898756.00805567h-4c-.27614237 0-.5-.22385763-.5-.5 0-.24545989.17687516-.44960837.41012437-.49194433l.08987563-.00805567z"/><path d="m12.5 10.5c.2761424 0 .5.2238576.5.5 0 .2454599-.1768752.4496084-.4101244.4919443l-.0898756.0080557h-3c-.27614237 0-.5-.2238576-.5-.5 0-.2454599.17687516-.4496084.41012437-.4919443l.08987563-.0080557z"/><path d="m3.5 1.5h-2c-.82842712 0-1.5.67157288-1.5 1.5v10c0 .8284271.67157288 1.5 1.5 1.5h13c.8284271 0 1.5-.6715729 1.5-1.5v-10c0-.82842712-.6715729-1.5-1.5-1.5h-2c-.2761424 0-.5.22385763-.5.5v.5c0 .55228473-.4477153 1-1 1s-1-.44771527-1-1v-.5c0-.27614237-.22385763-.5-.5-.5h-3c-.27614237 0-.5.22385763-.5.5v.5c0 .55228475-.44771525 1-1 1s-1-.44771525-1-1v-.5c0-.27614237-.22385763-.5-.5-.5zm9.5 1h1.5c.2761424 0 .5.22385763.5.5v10c0 .2761424-.2238576.5-.5.5h-13c-.27614237 0-.5-.2238576-.5-.5v-10c0-.27614237.22385763-.5.5-.5h1.5c0 1.1045695.8954305 2 2 2s2-.8954305 2-2h2c0 1.10456948.89543052 2 2 2 1.1045695 0 2-.89543052 2-2z"/></g></svg>