<?xml version="1.0" encoding="UTF-8"?>
<svg width="16px" height="16px" viewBox="0 0 16 16" version="1.1" xmlns="http://www.w3.org/2000/svg" xmlns:xlink="http://www.w3.org/1999/xlink">
    <g fill-rule="nonzero">
        <path d="M8.5 1a.5.5 0 0 1 0-1A6.5 6.5 0 0 1 15 6.5a.5.5 0 1 1-1 0A5.5 5.5 0 0 0 8.5 1z"/>
        <path d="M8.5 4a.5.5 0 0 1 0-1A3.5 3.5 0 0 1 12 6.5a.5.5 0 1 1-1 0A2.5 2.5 0 0 0 8.5 4zM2.5 7a.5.5 0 0 0-.5.5v7a.5.5 0 0 0 .5.5h4a.5.5 0 0 0 .5-.5v-7a.5.5 0 0 0-.5-.5h-4zm0-1h4A1.5 1.5 0 0 1 8 7.5v7A1.5 1.5 0 0 1 6.5 16h-4A1.5 1.5 0 0 1 1 14.5v-7A1.5 1.5 0 0 1 2.5 6z"/>
    </g>
</svg>
