<svg height="16" viewBox="0 0 16 16" width="16" xmlns="http://www.w3.org/2000/svg"><g fill="#4a4a4a"><path d="m13 9.5c0-.27614237.2238576-.5.5-.5s.5.22385763.5.5v5c0 .8281424-.6718576 1.5-1.5 1.5h-11c-.82814237 0-1.5-.6718576-1.5-1.5v-11c0-.82814237.67185763-1.5 1.5-1.5h5c.27614237 0 .5.22385763.5.5s-.22385763.5-.5.5h-5c-.27585763 0-.5.22414237-.5.5v11c0 .2758576.22414237.5.5.5h11c.2758576 0 .5-.2241424.5-.5z"/><path d="m13 6c-1.6568542 0-3-1.34314575-3-3s1.3431458-3 3-3 3 1.34314575 3 3-1.3431458 3-3 3zm0-1c1.1045695 0 2-.8954305 2-2s-.8954305-2-2-2-2 .8954305-2 2 .8954305 2 2 2z"/></g></svg>