<?xml version="1.0" encoding="UTF-8"?>
<svg width="16px" height="16px" viewBox="0 0 16 16" version="1.1" xmlns="http://www.w3.org/2000/svg" xmlns:xlink="http://www.w3.org/1999/xlink">
    <!-- Generator: Sketch 51.1 (57501) - http://www.bohemiancoding.com/sketch -->
    <title>ItemList/note</title>
    <desc>Created with Sketch.</desc>
    <defs></defs>
    <g id="ItemList/note" stroke="none" stroke-width="1" fill="none" fill-rule="evenodd">
        <rect id="Rectangle-path-Copy" fill="#FFFFFF" x="1.5" y="0.5" width="13" height="15"></rect>
        <g id="single-content-03" transform="translate(1.000000, 0.000000)" fill="#9298B0" fill-rule="nonzero">
            <path d="M1,1 L1,15 L13,15 L13,1 L1,1 Z M0.5,0 L13.5,0 C13.7761424,0 14,0.223857625 14,0.5 L14,15.5 C14,15.7761424 13.7761424,16 13.5,16 L0.5,16 C0.223857625,16 0,15.7761424 0,15.5 L0,0.5 C0,0.223857625 0.223857625,0 0.5,0 Z" id="Rectangle-path"></path>
            <path d="M3.5,4 C3.22385763,4 3,3.77614237 3,3.5 C3,3.22385763 3.22385763,3 3.5,3 L10.5,3 C10.7761424,3 11,3.22385763 11,3.5 C11,3.77614237 10.7761424,4 10.5,4 L3.5,4 Z" id="Shape"></path>
            <path d="M3.5,7 C3.22385763,7 3,6.77614237 3,6.5 C3,6.22385763 3.22385763,6 3.5,6 L10.5,6 C10.7761424,6 11,6.22385763 11,6.5 C11,6.77614237 10.7761424,7 10.5,7 L3.5,7 Z" id="Shape"></path>
            <path d="M3.5,10 C3.22385763,10 3,9.77614237 3,9.5 C3,9.22385763 3.22385763,9 3.5,9 L10.5,9 C10.7761424,9 11,9.22385763 11,9.5 C11,9.77614237 10.7761424,10 10.5,10 L3.5,10 Z" id="Shape"></path>
            <path d="M3.5,13 C3.22385763,13 3,12.7761424 3,12.5 C3,12.2238576 3.22385763,12 3.5,12 L6.5,12 C6.77614237,12 7,12.2238576 7,12.5 C7,12.7761424 6.77614237,13 6.5,13 L3.5,13 Z" id="Shape"></path>
        </g>
    </g>
</svg>