<?xml version="1.0" encoding="UTF-8"?>
<svg width="16px" height="16px" viewBox="0 0 16 16" version="1.1" xmlns="http://www.w3.org/2000/svg" xmlns:xlink="http://www.w3.org/1999/xlink">
    <!-- Generator: Sketch 57.1 (83088) - https://sketch.com -->
    <title>topmenu/icon/preferences</title>
    <desc>Created with Sketch.</desc>
    <g id="topmenu/icon/preferences" stroke="none" stroke-width="1" fill="none" fill-rule="evenodd">
        <g id="Group" fill="#626262" fill-rule="nonzero">
            <path d="M1,0 L15,0 C15.5522847,0 16,0.44771525 16,1 L16,15 C16,15.5522847 15.5522847,16 15,16 L1,16 C0.44771525,16 0,15.5522847 0,15 L0,1 C0,0.44771525 0.44771525,0 1,0 Z M1,1 L1,15 L15,15 L15,1 L1,1 Z" id="Rectangle"></path>
            <path d="M2.06746419,4.49873861 C2.06746419,5.87945048 3.18675232,6.99873861 4.56746419,6.99873861 L11.9007975,6.99873861 C13.2815094,6.99873861 14.4007975,5.87945048 14.4007975,4.49873861 C14.4007975,3.11802673 13.2815094,1.99873861 11.9007975,1.99873861 L4.56746419,1.99873861 C3.18675232,1.99873861 2.06746419,3.11802673 2.06746419,4.49873861 Z M3.06746419,4.49873861 C3.06746419,3.67031148 3.73903707,2.99873861 4.56746419,2.99873861 L11.9007975,2.99873861 C12.7292247,2.99873861 13.4007975,3.67031148 13.4007975,4.49873861 C13.4007975,5.32716573 12.7292247,5.99873861 11.9007975,5.99873861 L4.56746419,5.99873861 C3.73903707,5.99873861 3.06746419,5.32716573 3.06746419,4.49873861 Z" id="Path"></path>
            <path d="M4.56946419,6.99873861 C5.95017607,6.99873861 7.06946419,5.87945048 7.06946419,4.49873861 C7.06946419,3.11802673 5.95017607,1.99873861 4.56946419,1.99873861 C3.18875232,1.99873861 2.06946419,3.11802673 2.06946419,4.49873861 C2.06946419,5.87945048 3.18875232,6.99873861 4.56946419,6.99873861 Z M4.56946419,5.99873861 C3.74103707,5.99873861 3.06946419,5.32716573 3.06946419,4.49873861 C3.06946419,3.67031148 3.74103707,2.99873861 4.56946419,2.99873861 C5.39789132,2.99873861 6.06946419,3.67031148 6.06946419,4.49873861 C6.06946419,5.32716573 5.39789132,5.99873861 4.56946419,5.99873861 Z" id="Oval"></path>
            <path d="M2.06746419,11.5 C2.06746419,12.8807119 3.18675232,14 4.56746419,14 L11.9007975,14 C13.2815094,14 14.4007975,12.8807119 14.4007975,11.5 C14.4007975,10.1192881 13.2815094,9 11.9007975,9 L4.56746419,9 C3.18675232,9 2.06746419,10.1192881 2.06746419,11.5 Z M3.06746419,11.5 C3.06746419,10.6715729 3.73903707,10 4.56746419,10 L11.9007975,10 C12.7292247,10 13.4007975,10.6715729 13.4007975,11.5 C13.4007975,12.3284271 12.7292247,13 11.9007975,13 L4.56746419,13 C3.73903707,13 3.06746419,12.3284271 3.06746419,11.5 Z" id="Path"></path>
            <path d="M11.9027975,14 C13.2835094,14 14.4027975,12.8807119 14.4027975,11.5 C14.4027975,10.1192881 13.2835094,9 11.9027975,9 C10.5220857,9 9.40279753,10.1192881 9.40279753,11.5 C9.40279753,12.8807119 10.5220857,14 11.9027975,14 Z M11.9027975,13 C11.0743704,13 10.4027975,12.3284271 10.4027975,11.5 C10.4027975,10.6715729 11.0743704,10 11.9027975,10 C12.7312247,10 13.4027975,10.6715729 13.4027975,11.5 C13.4027975,12.3284271 12.7312247,13 11.9027975,13 Z" id="Oval"></path>
        </g>
    </g>
</svg>