<?xml version="1.0" encoding="UTF-8"?>
<svg width="16px" height="14px" viewBox="0 0 16 14" version="1.1" xmlns="http://www.w3.org/2000/svg" xmlns:xlink="http://www.w3.org/1999/xlink">
    <!-- Generator: Sketch 52.5 (67469) - http://www.bohemiancoding.com/sketch -->
    <title>hi-reports</title>
    <desc>Created with Sketch.</desc>
    <g id="Page-1" stroke="none" stroke-width="1" fill="none" fill-rule="evenodd">
        <g id="hi-reports" fill="#4A4A4A">
            <path d="M0,14 L0,13 L16,13 L16,14 L0,14 Z M12,7 L16,7 L16,11 L12,11 L12,7 Z M13,8 L13,10 L15,10 L15,8 L13,8 Z M0,5 L4,5 L4,11 L0,11 L0,5 Z M1,6 L1,10 L3,10 L3,6 L1,6 Z M6,0 L10,0 L10,11 L6,11 L6,0 Z M7,1 L7,10 L9,10 L9,1 L7,1 Z" id="Combined-Shape"></path>
        </g>
    </g>
</svg>