<svg xmlns="http://www.w3.org/2000/svg" width="16" height="16" viewBox="0 0 16 16">
    <g fill="#626262" fill-rule="nonzero">
        <path d="M3.5 4a.5.5 0 0 1 0-1h7a.5.5 0 1 1 0 1h-7zM3.5 7a.5.5 0 0 1 0-1h7a.5.5 0 1 1 0 1h-7zM3.5 10a.5.5 0 0 1 0-1h7a.5.5 0 1 1 0 1h-7z"/>
        <path d="M13 15a2 2 0 0 0 2-2H5v.5a2.49 2.49 0 0 1-.5 1.5H13zM0 13.5V.5A.5.5 0 0 1 .5 0h13a.5.5 0 0 1 .5.5v10a.5.5 0 1 1-1 0V1H1v12.5a1.5 1.5 0 1 0 3 0v-1a.5.5 0 0 1 .5-.5h11a.5.5 0 0 1 .5.5v.5a3 3 0 0 1-3 3H2.5A2.5 2.5 0 0 1 0 13.5z"/>
    </g>
</svg>
