<?xml version="1.0" encoding="UTF-8"?>
<svg width="15px" height="15px" viewBox="0 0 15 15" version="1.1" xmlns="http://www.w3.org/2000/svg" xmlns:xlink="http://www.w3.org/1999/xlink">
    <!-- Generator: Sketch 52.5 (67469) - http://www.bohemiancoding.com/sketch -->
    <title>hi-search</title>
    <desc>Created with Sketch.</desc>
    <g id="Page-1" stroke="none" stroke-width="1" fill="none" fill-rule="evenodd">
        <g id="hi-search" fill="#3B3B3B">
            <path d="M12.0347425,11.3769713 C12.0580394,11.3951711 12.0806151,11.4151028 12.1022547,11.4367424 L14.5979257,13.9324134 C14.8276458,14.1621336 14.8648908,14.4973386 14.6811147,14.6811147 C14.4973386,14.8648908 14.1621336,14.8276458 13.9324134,14.5979257 L11.4367424,12.1022547 C11.4151028,12.0806151 11.3951711,12.0580394 11.3769713,12.0347425 C10.2206113,13.039106 8.71071475,13.6470586 7.05882329,13.6470586 C3.42024141,13.6470586 0.470588,10.6974052 0.470588,7.05882329 C0.470588,3.42024141 3.42024141,0.470588 7.05882329,0.470588 C10.6974052,0.470588 13.6470586,3.42024141 13.6470586,7.05882329 C13.6470586,8.71071475 13.039106,10.2206113 12.0347425,11.3769713 Z M7.05882329,12.7058821 C10.1776078,12.7058821 12.7058821,10.1776078 12.7058821,7.05882329 C12.7058821,3.94003882 10.1776078,1.41176447 7.05882329,1.41176447 C3.94003882,1.41176447 1.41176447,3.94003882 1.41176447,7.05882329 C1.41176447,10.1776078 3.94003882,12.7058821 7.05882329,12.7058821 Z" id="Combined-Shape"></path>
        </g>
    </g>
</svg>
