<?xml version="1.0" encoding="UTF-8"?>
<svg width="16px" height="16px" viewBox="0 0 16 16" version="1.1" xmlns="http://www.w3.org/2000/svg" xmlns:xlink="http://www.w3.org/1999/xlink">
    <!-- Generator: Sketch 51.1 (57501) - http://www.bohemiancoding.com/sketch -->
    <title>topmenu/icon/settings</title>
    <desc>Created with Sketch.</desc>
    <defs></defs>
    <g id="topmenu/icon/settings" stroke="none" stroke-width="1" fill="none" fill-rule="evenodd">
        <g id="settings-gear-63" fill="#111111" fill-rule="nonzero">
            <path d="M8,11 C6.34314575,11 5,9.65685425 5,8 C5,6.34314575 6.34314575,5 8,5 C9.65685425,5 11,6.34314575 11,8 C11,9.65685425 9.65685425,11 8,11 Z M8,10 C9.1045695,10 10,9.1045695 10,8 C10,6.8954305 9.1045695,6 8,6 C6.8954305,6 6,6.8954305 6,8 C6,9.1045695 6.8954305,10 8,10 Z" id="Oval"></path>
            <path d="M15.5822362,6.50680916 C15.8233133,6.54700714 16,6.75559451 16,7 L16,9 C16,9.24440549 15.8233133,9.45299286 15.5822362,9.49319084 L13.7169269,9.80421854 C13.6119896,10.1373863 13.4787364,10.4591256 13.3185105,10.7667972 L14.417035,12.3066166 C14.5589222,12.5055021 14.5363067,12.7778001 14.3635534,12.9505534 L12.9495534,14.3645534 C12.7767156,14.5373912 12.5042525,14.5599337 12.3053595,14.4178514 L10.7665984,13.318614 C10.458987,13.4787938 10.1373145,13.6120122 9.80421854,13.7169269 L9.49319084,15.5822362 C9.45299286,15.8233133 9.24440549,16 9,16 L7,16 C6.75559451,16 6.54700714,15.8233133 6.50680916,15.5822362 L6.19578146,13.7169269 C5.8626436,13.611999 5.54093211,13.4787603 5.23328559,13.3185536 L3.69449048,14.4169586 C3.49560183,14.558927 3.22323509,14.5363419 3.05044661,14.3635534 L1.63644661,12.9495534 C1.46365813,12.7767649 1.44107302,12.5043982 1.58304142,12.3055095 L2.6814464,10.7667144 C2.52123966,10.4590679 2.38800096,10.1373564 2.28307315,9.80421854 L0.417763769,9.49319084 C0.17668667,9.45299286 0,9.24440549 0,9 L0,7 C0,6.75559451 0.17668667,6.54700714 0.417763769,6.50680916 L2.28307315,6.19578146 C2.38800096,5.8626436 2.52123966,5.54093211 2.6814464,5.23328559 L1.58304142,3.69449048 C1.44107302,3.49560183 1.46365813,3.22323509 1.63644661,3.05044661 L3.05044661,1.63644661 C3.22323509,1.46365813 3.49560183,1.44107302 3.69449048,1.58304142 L5.23328559,2.6814464 C5.54093211,2.52123966 5.8626436,2.38800096 6.19578146,2.28307315 L6.50680916,0.417763769 C6.54700714,0.17668667 6.75559451,0 7,0 L9,0 C9.24440549,0 9.45299286,0.17668667 9.49319084,0.417763769 L9.80421854,2.28307315 C10.1373564,2.38800096 10.4590679,2.52123966 10.7667144,2.6814464 L12.3055095,1.58304142 C12.5043438,1.44111185 12.7766261,1.4636415 12.9494284,1.63632166 L14.3644284,3.05032166 C14.5373745,3.22314558 14.5599725,3.49569313 14.4178514,3.69464053 L13.318614,5.23340157 C13.4787938,5.54101297 13.6120122,5.86268546 13.7169269,6.19578146 L15.5822362,6.50680916 Z M15,8.57646844 L15,7.42353156 L13.2407638,7.13019084 C13.0454104,7.09761698 12.8876956,6.95280706 12.8386039,6.76093728 C12.7202711,6.29844547 12.5385231,5.86028665 12.2980593,5.45524695 C12.1968656,5.28479512 12.2059229,5.07065747 12.3211486,4.90935947 L13.3578377,3.45815628 L12.5419788,2.64287393 L11.0904905,3.67895858 C10.9292044,3.79408591 10.7151474,3.80310029 10.544753,3.70194069 C10.1397134,3.46147694 9.70155453,3.27972893 9.23906272,3.16139607 C9.04719294,3.11230439 8.90238302,2.95458963 8.86980916,2.75923623 L8.57646844,1 L7.42353156,1 L7.13019084,2.75923623 C7.09761698,2.95458963 6.95280706,3.11230439 6.76093728,3.16139607 C6.29844547,3.27972893 5.86028665,3.46147694 5.45524695,3.70194069 C5.28485264,3.80310029 5.07079556,3.79408591 4.90950952,3.67895858 L3.4581447,2.64296208 L2.64296208,3.4581447 L3.67895858,4.90950952 C3.79408591,5.07079556 3.80310029,5.28485264 3.70194069,5.45524695 C3.46147694,5.86028665 3.27972893,6.29844547 3.16139607,6.76093728 C3.11230439,6.95280706 2.95458963,7.09761698 2.75923623,7.13019084 L1,7.42353156 L1,8.57646844 L2.75923623,8.86980916 C2.95458963,8.90238302 3.11230439,9.04719294 3.16139607,9.23906272 C3.27972893,9.70155453 3.46147694,10.1397134 3.70194069,10.544753 C3.80310029,10.7151474 3.79408591,10.9292044 3.67895858,11.0904905 L2.64296208,12.5418553 L3.4581447,13.3570379 L4.90950952,12.3210414 C5.07079556,12.2059141 5.28485264,12.1968997 5.45524695,12.2980593 C5.86028665,12.5385231 6.29844547,12.7202711 6.76093728,12.8386039 C6.95280706,12.8876956 7.09761698,13.0454104 7.13019084,13.2407638 L7.42353156,15 L8.57646844,15 L8.86980916,13.2407638 C8.90238302,13.0454104 9.04719294,12.8876956 9.23906272,12.8386039 C9.70155453,12.7202711 10.1397134,12.5385231 10.544753,12.2980593 C10.7152049,12.1968656 10.9293425,12.2059229 11.0906405,12.3211486 L12.5419673,13.357926 L13.3571178,12.5427754 L12.320965,11.0903834 C12.2059078,10.9291059 12.1969241,10.7151063 12.2980593,10.544753 C12.5385231,10.1397134 12.7202711,9.70155453 12.8386039,9.23906272 C12.8876956,9.04719294 13.0454104,8.90238302 13.2407638,8.86980916 L15,8.57646844 Z" id="Shape"></path>
        </g>
    </g>
</svg>
