
<svg width="16px" height="16px" viewBox="0 0 16 16" version="1.1" xmlns="http://www.w3.org/2000/svg" xmlns:xlink="http://www.w3.org/1999/xlink">
    <defs></defs>
    <g id="Symbols" stroke="none" stroke-width="1" fill="none" fill-rule="evenodd">
        <g id="icon/sort-orde16" fill-rule="nonzero">
            <g id="list-numbers">
                <path d="M9.35,3 C9.15670034,3 9,2.77614237 9,2.5 C9,2.22385763 9.15670034,2 9.35,2 L15.65,2 C15.8432997,2 16,2.22385763 16,2.5 C16,2.77614237 15.8432997,3 15.65,3 L9.35,3 Z" id="Shape" fill="#9B9B9B"></path>
                <path d="M9.35,9 C9.15670034,9 9,8.77614237 9,8.5 C9,8.22385763 9.15670034,8 9.35,8 L15.65,8 C15.8432997,8 16,8.22385763 16,8.5 C16,8.77614237 15.8432997,9 15.65,9 L9.35,9 Z" id="Shape" fill="#9B9B9B"></path>
                <path d="M9.35,15 C9.15670034,15 9,14.7761424 9,14.5 C9,14.2238576 9.15670034,14 9.35,14 L15.65,14 C15.8432997,14 16,14.2238576 16,14.5 C16,14.7761424 15.8432997,15 15.65,15 L9.35,15 Z" id="Shape" fill="#9B9B9B"></path>
                <path d="M5,0.5 C5,0.223857625 5.22385763,0 5.5,0 C5.77614237,0 6,0.223857625 6,0.5 L6,15.5 C6,15.7761424 5.77614237,16 5.5,16 C5.22385763,16 5,15.7761424 5,15.5 L5,0.5 Z" id="Shape" fill="#626262"></path>
                <path d="M5.85355339,15.8535534 C5.65829124,16.0488155 5.34170876,16.0488155 5.14644661,15.8535534 L0.146446609,10.8535534 C-0.0488155365,10.6582912 -0.0488155365,10.3417088 0.146446609,10.1464466 C0.341708755,9.95118446 0.658291245,9.95118446 0.853553391,10.1464466 L5.5,14.7928932 L5.85355339,15.8535534 Z" id="Shape" fill="#626262"></path>
            </g>
        </g>
    </g>
</svg>
