<?xml version="1.0" encoding="UTF-8"?>
<svg width="16px" height="16px" viewBox="0 0 16 16" version="1.1" xmlns="http://www.w3.org/2000/svg" xmlns:xlink="http://www.w3.org/1999/xlink">
    <!-- Generator: Sketch 57.1 (83088) - https://sketch.com -->
    <title>topmenu/icon/search</title>
    <desc>Created with Sketch.</desc>
    <g id="topmenu/icon/search" stroke="none" stroke-width="1" fill="none" fill-rule="evenodd">
        <g id="search-1" transform="translate(-0.500000, -0.500000)" fill="#626262" fill-rule="nonzero">
            <path d="M7.5625,14.3125 C11.2904221,14.3125 14.3125,11.2904221 14.3125,7.5625 C14.3125,3.83457794 11.2904221,0.8125 7.5625,0.8125 C3.83457794,0.8125 0.8125,3.83457794 0.8125,7.5625 C0.8125,11.2904221 3.83457794,14.3125 7.5625,14.3125 Z M7.5625,13.3125 C4.38686269,13.3125 1.8125,10.7381373 1.8125,7.5625 C1.8125,4.38686269 4.38686269,1.8125 7.5625,1.8125 C10.7381373,1.8125 13.3125,4.38686269 13.3125,7.5625 C13.3125,10.7381373 10.7381373,13.3125 7.5625,13.3125 Z" id="Oval"></path>
            <path d="M16.0410534,15.3339466 L12.3354284,11.6283216 C12.1401662,11.4330595 11.8235838,11.4330595 11.6283216,11.6283216 C11.4330595,11.8235838 11.4330595,12.1401662 11.6283216,12.3354284 L15.3339466,16.0410534 C15.5292088,16.2363155 15.8457912,16.2363155 16.0410534,16.0410534 C16.2363155,15.8457912 16.2363155,15.5292088 16.0410534,15.3339466 Z" id="Path"></path>
        </g>
    </g>
</svg>