<?xml version="1.0" encoding="UTF-8"?>
<svg width="16px" height="14px" viewBox="0 0 16 14" version="1.1" xmlns="http://www.w3.org/2000/svg" xmlns:xlink="http://www.w3.org/1999/xlink">
    <!-- Generator: Sketch 50.2 (55047) - http://www.bohemiancoding.com/sketch -->
    <title>hi-user-notify</title>
    <desc>Created with Sketch.</desc>
    <defs></defs>
    <g id="Page-1" stroke="none" stroke-width="1" fill="none" fill-rule="evenodd">
        <g id="icon/user-notify">
            <g id="users-copy" stroke-width="1" fill="#626262">
                <path d="M5.5,7 C3.56700338,7 2,5.43299662 2,3.5 C2,1.56700338 3.56700338,0 5.5,0 C7.43299662,0 9,1.56700338 9,3.5 C9,5.43299662 7.43299662,7 5.5,7 Z M5.5,6 C6.88071187,6 8,4.88071187 8,3.5 C8,2.11928813 6.88071187,1 5.5,1 C4.11928813,1 3,2.11928813 3,3.5 C3,4.88071187 4.11928813,6 5.5,6 Z" id="Oval" fill-rule="nonzero"></path>
                <path d="M11,13.5 C11,13.7761424 10.7761424,14 10.5,14 L0.5,14 C0.223857625,14 0,13.7761424 0,13.5 C3.66373598e-16,10.4624339 2.46243388,8 5.5,8 C8.53756612,8 11,10.4624339 11,13.5 Z M5.5,9 C3.18372317,9 1.27618653,10.7500248 1.02746439,13 L9.97253561,13 C9.72381347,10.7500248 7.81627683,9 5.5,9 Z" id="Shape" fill-rule="nonzero"></path>
            </g>
            <circle id="Oval" fill="#3875A4" cx="13" cy="3" r="2.5"></circle>
        </g>
    </g>
</svg>
